<svg width="423" height="72" viewBox="0 0 423 72" fill="none" xmlns="http://www.w3.org/2000/svg">
<path d="M10.3918 34.8134C10.278 34.8134 10.1529 34.7679 10.0164 34.6769C9.90266 34.5859 9.84579 34.4721 9.84579 34.3357C9.84579 34.1992 9.92541 34.0627 10.0846 33.9262C10.2666 33.7897 10.5965 33.676 11.0742 33.585C11.1197 33.585 11.3131 33.5622 11.6543 33.5167C12.0183 33.4712 12.4619 33.4257 12.9851 33.3802C13.531 33.3347 14.0997 33.3006 14.6912 33.2779C15.3054 33.2324 15.8627 33.2096 16.3632 33.2096C16.8864 33.2096 17.3073 33.2437 17.6257 33.312C17.967 33.3575 18.1376 33.4371 18.1376 33.5508C18.1376 33.6873 18.0693 33.8011 17.9328 33.8921C17.7963 33.9831 17.6257 34.0627 17.421 34.1309C17.239 34.1764 17.0343 34.2219 16.8068 34.2674C16.6021 34.2902 16.4087 34.3243 16.2267 34.3698C16.0675 34.3925 15.6921 34.438 15.1007 34.5063C14.5092 34.5518 13.8836 34.5973 13.2239 34.6428C12.5642 34.6883 11.95 34.7338 11.3813 34.7792C10.8126 34.802 10.4827 34.8134 10.3918 34.8134ZM42.2044 46.1421C41.8859 46.2103 41.5219 46.3127 41.1125 46.4492C40.7257 46.5857 40.3504 46.7449 39.9864 46.9269C39.6224 47.1089 39.2926 47.3022 38.9969 47.507C38.7011 47.7344 38.4964 47.9619 38.3826 48.1894C38.1779 48.5761 38.1438 48.906 38.2803 49.179C38.4395 49.452 38.6898 49.6794 39.031 49.8614C39.3722 50.0662 39.7589 50.214 40.1911 50.305C40.6461 50.396 41.0556 50.4415 41.4196 50.4415H42.2044V46.1421ZM43.6716 50.2368C44.2404 50.2368 45.0365 50.0548 46.0602 49.6908C47.1067 49.3496 48.1531 48.9401 49.1995 48.4624C50.2687 47.9847 51.2241 47.4956 52.0658 46.9951C52.9302 46.5174 53.4534 46.1421 53.6354 45.8691C53.317 45.8691 52.953 45.8236 52.5435 45.7326C52.1568 45.6416 51.8042 45.5734 51.4857 45.5279C50.917 45.4369 50.3824 45.3686 49.882 45.3231C49.4042 45.3004 48.9379 45.289 48.4829 45.289C47.8687 45.289 47.2431 45.3231 46.6062 45.3914C45.9692 45.4596 45.264 45.5506 44.4906 45.6643C44.2176 45.7098 44.0242 45.7553 43.9105 45.8008C43.8195 45.8691 43.7626 45.9487 43.7399 46.0397C43.7399 46.1534 43.7513 46.2899 43.774 46.4492C43.7968 46.6312 43.7968 46.8586 43.774 47.1316L43.6716 50.2368ZM55.0345 44.9819L55.6487 44.5383C55.9899 44.3108 56.2174 44.1402 56.3311 44.0265L58.0372 42.5592C58.1737 42.4455 58.2761 42.3658 58.3444 42.3203C58.4126 42.2748 58.515 42.1952 58.6515 42.0815C58.8334 41.945 59.0837 41.6948 59.4021 41.3308C59.7434 40.9896 60.096 40.6142 60.4599 40.2047C60.8467 39.7953 61.1993 39.4085 61.5177 39.0446C61.859 38.6578 62.0978 38.3735 62.2343 38.1915C62.3253 38.0778 62.3936 37.9868 62.4391 37.9185C62.5073 37.8275 62.5983 37.7252 62.712 37.6114C62.894 37.3839 63.0419 37.1792 63.1556 36.9972C63.2694 36.8152 63.4059 36.5991 63.5651 36.3489C64.1566 35.4844 64.7253 34.5973 65.2712 33.6873C65.7944 32.7774 66.2608 31.7651 66.6703 30.6504C67.1025 29.5357 67.4323 28.3756 67.6598 27.1699C67.91 25.9643 68.0352 24.7586 68.0352 23.5529C68.0352 22.3473 67.8645 21.2098 67.5233 20.1407C67.1821 19.0715 66.6475 18.1161 65.9196 17.2744C65.2144 16.4099 64.2703 15.7275 63.0874 15.227C62.3822 14.9085 61.6542 14.6924 60.9035 14.5787C60.1528 14.4649 59.4021 14.4081 58.6515 14.4081C57.605 14.4081 56.57 14.4991 55.5463 14.6811C54.5454 14.863 53.5786 15.0905 52.6459 15.3635L49.2336 16.5578C48.6877 16.7853 48.2668 16.9673 47.9711 17.1038C47.6754 17.2403 47.4365 17.3654 47.2545 17.4791C47.0953 17.5928 46.9815 17.7407 46.9133 17.9227C46.8678 18.0819 46.8109 18.3208 46.7427 18.6393C46.4924 20.0042 46.2536 21.2667 46.0261 22.4269C45.7986 23.5643 45.5711 24.8382 45.3437 26.2486C45.1389 27.4998 44.9797 28.6713 44.8659 29.7632C44.7749 30.8324 44.6498 31.9357 44.4906 33.0731L44.0129 40.2047C44.0129 41.1374 43.9901 41.8881 43.9446 42.4568C43.8991 43.0255 43.8536 43.4691 43.8081 43.7876C43.7854 44.1061 43.774 44.3222 43.774 44.4359C43.774 44.5497 43.8423 44.6065 43.9788 44.6065C44.0697 44.6065 44.1835 44.5952 44.32 44.5724C44.4565 44.5497 44.6385 44.5156 44.8659 44.4701C45.4574 44.3791 46.0147 44.3108 46.5379 44.2653C47.0839 44.2426 47.6185 44.2312 48.1417 44.2312C49.0516 44.2312 49.9388 44.2767 50.8033 44.3677C51.6677 44.4587 52.6118 44.5952 53.6354 44.7772C53.8857 44.8227 54.1018 44.8682 54.2838 44.9136C54.4885 44.9591 54.7387 44.9819 55.0345 44.9819ZM47.4251 15.8753C47.6754 15.8753 47.9028 15.8185 48.1076 15.7047C48.3123 15.591 48.5284 15.4886 48.7559 15.3976L52.6459 13.9304C53.6013 13.6574 54.5795 13.4413 55.5804 13.282C56.5814 13.1 57.5937 13.0091 58.6173 13.0091C60.1187 13.0091 61.5632 13.2252 62.9509 13.6574C64.3385 14.0896 65.567 14.8517 66.6361 15.9436C67.4096 16.717 68.0124 17.5701 68.4446 18.5028C68.8768 19.4355 69.1726 20.4136 69.3318 21.4373C69.5138 22.461 69.5707 23.5074 69.5024 24.5766C69.4569 25.6458 69.3204 26.6808 69.093 27.6818C68.5242 30.0931 67.7053 32.2656 66.6361 34.1992C65.5897 36.11 64.293 37.9754 62.7462 39.7953L61.7225 40.9213C61.586 41.0805 61.3926 41.2853 61.1424 41.5355C60.9149 41.8085 60.6647 42.0815 60.3917 42.3545C60.1187 42.6274 59.8571 42.8777 59.6069 43.1052C59.3567 43.3554 59.1633 43.526 59.0268 43.617C58.8221 43.799 58.6173 43.9582 58.4126 44.0947C58.2306 44.2539 58.0372 44.4246 57.8325 44.6065C57.5368 44.8113 57.2979 44.9819 57.1159 45.1184C56.934 45.2549 56.8088 45.4369 56.7406 45.6643C57.0136 45.7326 57.2752 45.835 57.5254 45.9714C57.7756 46.1307 57.9804 46.3127 58.1396 46.5174C58.2989 46.7221 58.3671 46.9383 58.3444 47.1657C58.3444 47.3932 58.2079 47.598 57.9349 47.7799C57.6846 47.6207 57.5368 47.4728 57.4913 47.3364C57.4458 47.1999 57.2638 47.0406 56.9453 46.8586C56.3539 46.5629 55.933 46.415 55.6828 46.415C55.4326 46.415 55.2164 46.4833 55.0345 46.6198C54.8525 46.779 54.5681 46.9838 54.1814 47.234C53.7037 47.5525 53.1577 47.8823 52.5435 48.2235C51.9521 48.5648 51.3378 48.8832 50.7009 49.179C50.0867 49.4974 49.4611 49.7932 48.8242 50.0662C48.1872 50.3391 47.5957 50.5552 47.0498 50.7145C46.8678 50.7827 46.6289 50.8623 46.3332 50.9533C46.0375 51.0443 45.7304 51.124 45.4119 51.1922C45.0934 51.2832 44.7749 51.3628 44.4565 51.4311C44.138 51.4993 43.865 51.5334 43.6375 51.5334L43.774 54.2632C43.7968 54.377 43.7513 54.4793 43.6375 54.5703C43.5238 54.6841 43.3873 54.7409 43.2281 54.7409C42.8868 54.7409 42.6252 54.4793 42.4432 53.9561C42.375 53.7059 42.3295 53.4898 42.3067 53.3078C42.3067 53.1258 42.2954 52.8983 42.2726 52.6253C42.2271 52.1931 42.1703 51.9088 42.102 51.7723C42.0565 51.6585 41.9655 51.6017 41.829 51.6017C41.738 51.6017 41.6357 51.6017 41.5219 51.6017C41.4309 51.6244 41.3058 51.6358 41.1466 51.6358C40.7599 51.6358 40.3276 51.5789 39.8499 51.4652C39.395 51.3514 38.9627 51.1808 38.5533 50.9533C38.1438 50.7259 37.7912 50.4415 37.4955 50.1003C37.2225 49.7818 37.086 49.3951 37.086 48.9401C37.086 48.1894 37.2907 47.5866 37.7002 47.1316C38.1324 46.6994 38.6329 46.3354 39.2016 46.0397C39.7703 45.7667 40.339 45.5506 40.9077 45.3914C41.4992 45.2321 41.9655 45.0615 42.3067 44.8795C42.3067 44.2426 42.3181 43.6511 42.3409 43.1052C42.3864 42.5592 42.4091 41.9905 42.4091 41.399C42.4091 40.8531 42.4432 40.273 42.5115 39.6588C42.6025 39.0446 42.648 38.4645 42.648 37.9185C42.648 37.2361 42.6935 36.292 42.7845 35.0864C42.8755 33.8579 42.9892 32.584 43.1257 31.2646C43.2622 29.9225 43.41 28.6599 43.5693 27.477C43.7285 26.2714 43.8536 25.35 43.9446 24.7131L45.173 18.7075C44.7863 18.9123 44.2859 19.2194 43.6716 19.6288C43.0574 20.0383 42.4319 20.4933 41.7949 20.9937C41.158 21.4714 40.5437 21.9605 39.9523 22.461C39.3608 22.9615 38.8945 23.3823 38.5533 23.7235L36.3012 26.1121C35.596 26.9083 34.8225 27.8865 33.9808 29.0467C33.1391 30.1841 32.3543 31.3784 31.6264 32.6295C30.8984 33.8807 30.2842 35.1318 29.7838 36.383C29.2833 37.6342 29.0331 38.7716 29.0331 39.7953C29.0331 40.3412 29.1013 40.7166 29.2378 40.9213C29.3743 41.1488 29.5222 41.2967 29.6814 41.3649C29.8634 41.4331 30.034 41.4786 30.1932 41.5014C30.3525 41.5469 30.4548 41.672 30.5003 41.8767C30.5686 42.1952 30.3866 42.3545 29.9544 42.3545C29.7724 42.3545 29.5677 42.309 29.3402 42.218C29.1127 42.127 28.8966 41.9791 28.6918 41.7744C28.4871 41.5696 28.3165 41.2967 28.18 40.9554C28.0435 40.637 27.9753 40.2502 27.9753 39.7953C27.9753 39.0218 28.1118 38.1801 28.3847 37.2702C28.635 36.3603 28.9534 35.4617 29.3402 34.5745C29.7496 33.6873 30.1819 32.8456 30.6368 32.0494C31.0918 31.2305 31.5126 30.5367 31.8994 29.968C32.4681 29.1263 33.014 28.3642 33.5372 27.6818C34.0605 26.9993 34.5837 26.351 35.1069 25.7368C35.6528 25.0998 36.2216 24.4856 36.813 23.8941C37.4045 23.2799 38.0528 22.6202 38.758 21.915C39.6224 21.1643 40.4982 20.4364 41.3854 19.7312C42.2726 19.026 43.2053 18.3777 44.1835 17.7862C44.5247 17.6042 44.8432 17.4336 45.1389 17.2744C45.4346 17.1151 45.628 16.9104 45.719 16.6602C45.8782 16.3417 46.0034 16.046 46.0943 15.773C46.2081 15.4773 46.4697 15.2725 46.8792 15.1588C47.1067 15.2725 47.2545 15.3521 47.3228 15.3976C47.391 15.4204 47.4251 15.5796 47.4251 15.8753ZM69.6893 39.8635C69.5301 39.8635 69.4163 39.7725 69.3481 39.5905C69.2798 39.4085 69.2343 39.2152 69.2116 39.0104C69.2116 38.783 69.223 38.5669 69.2457 38.3621C69.2685 38.1574 69.2798 38.0209 69.2798 37.9526C69.2571 37.5432 69.2457 37.1337 69.2457 36.7242C69.2685 36.292 69.2685 35.8598 69.2457 35.4276C69.2457 35.2683 69.2457 34.9612 69.2457 34.5063C69.2685 34.0513 69.3026 33.585 69.3481 33.1072C69.4163 32.6295 69.5073 32.2087 69.6211 31.8447C69.7348 31.458 69.8827 31.2646 70.0647 31.2646C70.5196 31.2646 70.7471 31.4125 70.7471 31.7082C70.7698 32.0039 70.7585 32.3907 70.713 32.8684C70.6902 33.0504 70.6789 33.2324 70.6789 33.4143C70.6789 33.5963 70.6789 33.7783 70.6789 33.9603C70.6789 34.2105 70.6675 34.3698 70.6447 34.438C70.622 34.4835 70.6106 34.62 70.6106 34.8475C70.8608 34.6655 71.0883 34.4608 71.2931 34.2333C71.4978 33.9831 71.8618 33.8579 72.385 33.8579C72.5442 33.8579 72.749 33.8579 72.9992 33.8579C73.2722 33.8352 73.5565 33.8238 73.8523 33.8238C74.3527 33.8238 74.8191 33.8579 75.2513 33.9262C75.6835 33.9717 75.8996 34.1082 75.8996 34.3357C75.8996 34.5859 75.7745 34.7451 75.5243 34.8134C75.2968 34.8589 75.0124 34.8816 74.6712 34.8816C74.4437 34.8816 74.2049 34.8816 73.9546 34.8816C73.7271 34.8589 73.5224 34.8475 73.3404 34.8475C73.0219 34.8475 72.7603 34.8589 72.5556 34.8816C72.3509 34.8816 72.1802 34.9157 72.0438 34.984C71.9073 35.0295 71.7822 35.1091 71.6684 35.2228C71.5774 35.3366 71.4637 35.5072 71.3272 35.7347C71.1452 36.0304 70.986 36.3489 70.8495 36.6901C70.713 37.0313 70.6106 37.4067 70.5424 37.8162C70.4969 38.0436 70.4741 38.2825 70.4741 38.5327C70.4741 38.7602 70.4627 38.9763 70.44 39.1811C70.4172 39.3858 70.349 39.5564 70.2353 39.6929C70.1443 39.8066 69.9623 39.8635 69.6893 39.8635ZM76.6191 39.0104C76.6191 38.6692 76.7215 38.419 76.9262 38.2597C77.1537 38.0778 77.3926 37.9868 77.6428 37.9868C77.893 37.9868 78.0978 38.0664 78.257 38.2256C78.439 38.3849 78.5072 38.6237 78.4617 38.9422C78.4162 39.2607 78.3025 39.4995 78.1205 39.6588C77.9385 39.818 77.7338 39.8976 77.5063 39.8976C77.2788 39.8976 77.0741 39.818 76.8921 39.6588C76.7101 39.4995 76.6191 39.2834 76.6191 39.0104ZM104.521 50.032C104.521 49.941 104.521 49.7932 104.521 49.5884C104.543 49.3837 104.555 49.1676 104.555 48.9401C104.578 48.7126 104.6 48.5079 104.623 48.3259C104.646 48.1439 104.669 48.0188 104.691 47.9506C104.509 47.9961 104.407 48.0416 104.384 48.087C104.384 48.1325 104.339 48.2349 104.248 48.3942C104.111 48.7126 104.054 49.0197 104.077 49.3155C104.123 49.6112 104.27 49.85 104.521 50.032ZM107.251 18.3322C107.251 17.6725 107.296 17.0469 107.387 16.4554C107.501 15.8412 107.558 15.2156 107.558 14.5787C107.558 14.3285 107.58 14.0214 107.626 13.6574C107.671 13.2934 107.705 12.9636 107.728 12.6678C107.751 12.4176 107.762 12.2356 107.762 12.1219C107.762 11.9854 107.774 11.8716 107.796 11.7806C107.819 11.6896 107.865 11.61 107.933 11.5418C108.001 11.4735 108.126 11.3939 108.308 11.3029C108.49 11.4167 108.638 11.5304 108.752 11.6441C108.888 11.7351 108.957 11.9285 108.957 12.2242C108.957 12.7702 108.945 13.2707 108.923 13.7256C108.923 14.1806 108.9 14.6242 108.854 15.0564C108.832 15.4659 108.797 15.8867 108.752 16.3189C108.729 16.7284 108.695 17.1834 108.65 17.6838C108.832 17.6383 109.059 17.5587 109.332 17.445C109.628 17.3085 109.878 17.2061 110.083 17.1379C111.607 16.5237 113.245 15.9322 114.996 15.3635C116.771 14.7721 118.477 14.3171 120.115 13.9986C120.388 13.9304 120.831 13.8394 121.446 13.7256C122.06 13.6119 122.765 13.5095 123.561 13.4185C124.357 13.3048 125.199 13.2138 126.086 13.1455C126.973 13.0545 127.815 13.0091 128.611 13.0091C129.749 13.0091 130.704 13.1114 131.478 13.3162C132.274 13.5209 132.672 13.9076 132.672 14.4763C132.672 15.136 132.433 15.6251 131.955 15.9436C131.5 16.2621 131.045 16.4441 130.59 16.4896C130.704 16.1711 130.886 15.8526 131.136 15.5341C131.387 15.2156 131.534 14.8972 131.58 14.5787C131.284 14.5332 131.011 14.4763 130.761 14.4081C130.533 14.3398 130.226 14.3057 129.84 14.3057C128.679 14.3057 127.679 14.3171 126.837 14.3398C125.995 14.3626 125.176 14.4195 124.38 14.5104C123.607 14.6014 122.799 14.7266 121.957 14.8858C121.138 15.045 120.16 15.2611 119.023 15.5341C118.864 15.5796 118.5 15.6934 117.931 15.8753C117.385 16.0346 116.737 16.2393 115.986 16.4896C115.235 16.717 114.428 16.9786 113.563 17.2744C112.721 17.5474 111.937 17.8203 111.209 18.0933C110.504 18.3663 109.901 18.6165 109.4 18.844C108.9 19.0487 108.615 19.2194 108.547 19.3558L107.455 30.0703C107.433 30.3888 107.387 30.7414 107.319 31.1281C107.273 31.4921 107.251 31.8447 107.251 32.1859C107.501 32.1404 107.887 32.0153 108.411 31.8106C108.957 31.6058 109.4 31.4466 109.741 31.3329C110.037 31.2419 110.413 31.1281 110.868 30.9916C111.345 30.8552 111.834 30.73 112.335 30.6163C112.835 30.4798 113.313 30.3547 113.768 30.2409C114.246 30.1272 114.644 30.059 114.962 30.0362C115.44 29.968 115.838 29.9338 116.157 29.9338C116.748 29.9338 117.101 30.0476 117.214 30.2751C117.328 30.5026 117.328 30.8438 117.214 31.2987C117.101 31.3215 117.021 31.3442 116.975 31.367C116.93 31.367 116.828 31.3784 116.668 31.4011C116.646 31.2646 116.611 31.1623 116.566 31.094C116.52 31.003 116.418 30.9575 116.259 30.9575C115.827 30.9575 115.247 31.0371 114.519 31.1964C113.813 31.3329 113.063 31.5149 112.267 31.7423C111.493 31.9471 110.742 32.1746 110.014 32.4248C109.286 32.6523 108.695 32.857 108.24 33.039C108.058 33.1072 107.876 33.1755 107.694 33.2437C107.535 33.312 107.353 33.3575 107.148 33.3802L106.056 45.3231C106.329 45.3004 106.636 45.1866 106.978 44.9819C107.319 44.7999 107.614 44.652 107.865 44.5383C108.797 44.1288 109.764 43.7762 110.765 43.4805C111.789 43.2075 112.812 42.9914 113.836 42.8322C114.041 42.7867 114.45 42.7184 115.065 42.6274C115.702 42.5592 116.441 42.4796 117.283 42.3886C118.147 42.2976 119.068 42.218 120.046 42.1497C121.047 42.1042 122.014 42.0815 122.947 42.0815C123.607 42.0815 124.221 42.1042 124.79 42.1497C125.381 42.1952 125.893 42.2635 126.325 42.3545C126.78 42.4682 127.133 42.6047 127.383 42.7639C127.633 42.9232 127.758 43.1279 127.758 43.3781C127.758 43.5601 127.747 43.6852 127.724 43.7535C127.724 43.8217 127.713 43.8672 127.69 43.89C127.667 43.9127 127.633 43.9355 127.588 43.9582C127.542 44.0037 127.474 44.0833 127.383 44.1971C127.292 44.1288 127.224 44.0606 127.178 43.9923C127.155 43.9241 127.098 43.8445 127.007 43.7535C126.916 43.6852 126.78 43.617 126.598 43.5487C126.416 43.4805 126.143 43.4123 125.779 43.344C125.028 43.2075 124.005 43.1393 122.708 43.1393C121.548 43.1393 120.342 43.1734 119.091 43.2416C117.863 43.3099 116.623 43.435 115.372 43.617C114.121 43.799 112.892 44.0378 111.686 44.3336C110.504 44.652 109.389 45.0388 108.342 45.4937C108.115 45.5847 107.922 45.6643 107.762 45.7326C107.626 45.8008 107.455 45.8918 107.251 46.0056C107.069 46.0966 106.887 46.1762 106.705 46.2444C106.523 46.3354 106.375 46.415 106.261 46.4833C106.124 46.5743 106.022 46.7335 105.954 46.961C105.886 47.1885 105.829 47.4387 105.783 47.7117C105.76 47.9847 105.749 48.2577 105.749 48.5306C105.749 48.8264 105.738 49.088 105.715 49.3155C105.647 50.0889 105.51 50.6235 105.306 50.9192C105.124 51.2149 104.907 51.3628 104.657 51.3628C104.475 51.3628 104.293 51.2946 104.111 51.1581C103.929 51.0216 103.759 50.851 103.599 50.6462C103.44 50.4643 103.315 50.2595 103.224 50.032C103.133 49.8273 103.088 49.6453 103.088 49.4861C103.088 48.8264 103.156 48.3145 103.292 47.9506C103.452 47.6093 103.622 47.3364 103.804 47.1316C104.009 46.9496 104.202 46.7904 104.384 46.6539C104.566 46.5402 104.691 46.3809 104.76 46.1762C104.782 46.0852 104.805 45.8463 104.828 45.4596C104.873 45.0956 104.907 44.6862 104.93 44.2312C104.976 43.7762 105.01 43.344 105.033 42.9345C105.055 42.5251 105.067 42.2521 105.067 42.1156C105.067 41.8426 105.078 41.672 105.101 41.6038C105.124 41.5583 105.146 41.4104 105.169 41.1602C105.169 40.9782 105.158 40.7962 105.135 40.6142C105.135 40.455 105.146 40.2844 105.169 40.1024L105.613 34.0286L102.746 35.4958C102.724 35.4958 102.576 35.5868 102.303 35.7688C102.053 35.928 101.814 36.0077 101.586 36.0077C101.359 36.0077 101.245 35.8598 101.245 35.5641C101.245 35.4276 101.325 35.2797 101.484 35.1205C101.666 34.9612 101.871 34.802 102.098 34.6428C102.325 34.4835 102.553 34.3357 102.78 34.1992C103.008 34.0627 103.179 33.9717 103.292 33.9262L105.817 32.7319C105.817 32.1404 105.84 31.5831 105.886 31.0599C105.931 30.5367 105.988 29.9907 106.056 29.422L107.012 19.8677C106.784 19.9814 106.557 20.0952 106.329 20.2089C106.102 20.3227 105.863 20.425 105.613 20.516L101.552 22.6316C101.097 22.8818 100.653 23.1435 100.221 23.4164C99.8118 23.6667 99.391 23.9396 98.9587 24.2354C98.845 24.3036 98.7312 24.3719 98.6175 24.4401C98.5265 24.5084 98.4128 24.588 98.2763 24.679C98.1625 24.77 98.0715 24.8382 98.0033 24.8837C97.9578 24.9292 97.8668 24.9974 97.7303 25.0884C97.4573 25.2249 97.2412 25.2932 97.082 25.2932C96.7635 25.2932 96.6043 25.1226 96.6043 24.7813C96.6043 24.5311 96.9569 24.1558 97.6621 23.6553C98.3673 23.1321 99.1635 22.6089 100.051 22.0857C100.961 21.5397 101.825 21.0506 102.644 20.6184C103.486 20.1634 104.032 19.8677 104.282 19.7312L107.251 18.3322ZM136.332 32.2883C136.582 32.2428 136.878 32.0381 137.219 31.6741C137.583 31.2874 137.925 30.9575 138.243 30.6845C138.402 30.5026 138.539 30.3547 138.653 30.2409C138.789 30.1045 138.948 29.9793 139.13 29.8656C139.358 29.7519 139.563 29.695 139.745 29.695C139.972 29.695 140.165 29.786 140.325 29.968C140.484 30.15 140.563 30.4912 140.563 30.9916C140.586 31.4921 140.575 32.0494 140.529 32.6636C140.507 33.2779 140.461 33.9148 140.393 34.5745C140.347 35.2115 140.325 35.7688 140.325 36.2465C140.325 37.2929 140.404 38.0323 140.563 38.4645C140.745 38.874 140.984 39.0787 141.28 39.0787C141.53 39.0787 141.803 38.9422 142.099 38.6692C142.417 38.3962 142.736 38.055 143.054 37.6455C143.373 37.2361 143.68 36.8039 143.976 36.3489C144.271 35.8939 144.533 35.4844 144.761 35.1205C144.92 34.8702 145.068 34.62 145.204 34.3698C145.341 34.1195 145.602 33.9944 145.989 33.9944C146.057 33.9944 146.125 34.0399 146.194 34.1309C146.285 34.2219 146.33 34.3243 146.33 34.438C146.33 34.529 146.285 34.6655 146.194 34.8475C146.125 35.0295 146.034 35.2115 145.921 35.3935C145.807 35.5754 145.693 35.7574 145.579 35.9394C145.488 36.0987 145.409 36.2238 145.341 36.3148C145.227 36.474 145.136 36.6105 145.068 36.7242C145.022 36.838 144.943 36.9858 144.829 37.1678C144.715 37.3043 144.613 37.4294 144.522 37.5432C144.453 37.6342 144.362 37.7707 144.249 37.9526C143.794 38.6123 143.271 39.1811 142.679 39.6588C142.088 40.1137 141.508 40.3412 140.939 40.3412C140.62 40.3412 140.313 40.2389 140.017 40.0341C139.722 39.8294 139.483 39.4768 139.301 38.9763C139.051 38.3621 138.903 37.7024 138.857 36.9972C138.835 36.292 138.846 35.5982 138.891 34.9157C138.96 34.2333 139.039 33.585 139.13 32.9708C139.221 32.3338 139.267 31.7651 139.267 31.2646C139.108 31.3784 138.903 31.5604 138.653 31.8106C138.425 32.0608 138.186 32.311 137.936 32.5613C137.686 32.8115 137.424 33.039 137.151 33.2437C136.901 33.4257 136.662 33.5167 136.435 33.5167C135.911 33.5167 135.547 33.2779 135.343 32.8001C135.161 32.2997 135.07 31.7878 135.07 31.2646C134.683 31.5149 134.308 31.9698 133.944 32.6295C133.602 33.2665 133.25 33.9262 132.886 34.6086C132.545 35.2683 132.192 35.8712 131.828 36.4171C131.487 36.9403 131.123 37.2133 130.736 37.2361H130.668C130.281 37.2361 129.985 37.0655 129.781 36.7242C129.576 36.3603 129.451 35.9167 129.405 35.3935C129.383 34.8702 129.405 34.3015 129.474 33.6873C129.565 33.0731 129.69 32.5044 129.849 31.9812C130.008 31.458 130.19 31.0258 130.395 30.6845C130.6 30.3206 130.804 30.1386 131.009 30.1386C131.441 30.1386 131.692 30.2409 131.76 30.4457C131.828 30.6277 131.805 30.9234 131.692 31.3329C131.601 31.7423 131.475 32.2656 131.316 32.9025C131.18 33.5167 131.112 34.256 131.112 35.1205C131.134 35.075 131.146 35.0522 131.146 35.0522C131.168 35.0522 131.18 35.0522 131.18 35.0522L131.282 34.9499L132.886 32.2542C132.977 32.0949 133.102 31.8788 133.261 31.6058C133.42 31.3329 133.602 31.0713 133.807 30.821C134.012 30.5708 134.217 30.3547 134.421 30.1727C134.649 29.968 134.865 29.8656 135.07 29.8656C135.593 29.8656 135.934 30.1386 136.093 30.6845C136.253 31.2078 136.332 31.7423 136.332 32.2883ZM152.261 32.2883C152.511 32.2428 152.807 32.0381 153.148 31.6741C153.512 31.2874 153.853 30.9575 154.171 30.6845C154.331 30.5026 154.467 30.3547 154.581 30.2409C154.717 30.1045 154.877 29.9793 155.059 29.8656C155.286 29.7519 155.491 29.695 155.673 29.695C155.9 29.695 156.094 29.786 156.253 29.968C156.412 30.15 156.492 30.4912 156.492 30.9916C156.515 31.4921 156.503 32.0494 156.458 32.6636C156.435 33.2779 156.389 33.9148 156.321 34.5745C156.276 35.2115 156.253 35.7688 156.253 36.2465C156.253 37.2929 156.333 38.0323 156.492 38.4645C156.674 38.874 156.913 39.0787 157.208 39.0787C157.459 39.0787 157.732 38.9422 158.027 38.6692C158.346 38.3962 158.664 38.055 158.983 37.6455C159.301 37.2361 159.608 36.8039 159.904 36.3489C160.2 35.8939 160.461 35.4844 160.689 35.1205C160.848 34.8702 160.996 34.62 161.132 34.3698C161.269 34.1195 161.531 33.9944 161.917 33.9944C161.986 33.9944 162.054 34.0399 162.122 34.1309C162.213 34.2219 162.258 34.3243 162.258 34.438C162.258 34.529 162.213 34.6655 162.122 34.8475C162.054 35.0295 161.963 35.2115 161.849 35.3935C161.735 35.5754 161.622 35.7574 161.508 35.9394C161.417 36.0987 161.337 36.2238 161.269 36.3148C161.155 36.474 161.064 36.6105 160.996 36.7242C160.95 36.838 160.871 36.9858 160.757 37.1678C160.643 37.3043 160.541 37.4294 160.45 37.5432C160.382 37.6342 160.291 37.7707 160.177 37.9526C159.722 38.6123 159.199 39.1811 158.607 39.6588C158.016 40.1137 157.436 40.3412 156.867 40.3412C156.549 40.3412 156.242 40.2389 155.946 40.0341C155.65 39.8294 155.411 39.4768 155.229 38.9763C154.979 38.3621 154.831 37.7024 154.786 36.9972C154.763 36.292 154.774 35.5982 154.82 34.9157C154.888 34.2333 154.968 33.585 155.059 32.9708C155.15 32.3338 155.195 31.7651 155.195 31.2646C155.036 31.3784 154.831 31.5604 154.581 31.8106C154.353 32.0608 154.115 32.311 153.864 32.5613C153.614 32.8115 153.352 33.039 153.08 33.2437C152.829 33.4257 152.59 33.5167 152.363 33.5167C151.84 33.5167 151.476 33.2779 151.271 32.8001C151.089 32.2997 150.998 31.7878 150.998 31.2646C150.611 31.5149 150.236 31.9698 149.872 32.6295C149.531 33.2665 149.178 33.9262 148.814 34.6086C148.473 35.2683 148.12 35.8712 147.756 36.4171C147.415 36.9403 147.051 37.2133 146.664 37.2361H146.596C146.21 37.2361 145.914 37.0655 145.709 36.7242C145.504 36.3603 145.379 35.9167 145.334 35.3935C145.311 34.8702 145.334 34.3015 145.402 33.6873C145.493 33.0731 145.618 32.5044 145.777 31.9812C145.937 31.458 146.119 31.0258 146.323 30.6845C146.528 30.3206 146.733 30.1386 146.937 30.1386C147.37 30.1386 147.62 30.2409 147.688 30.4457C147.756 30.6277 147.734 30.9234 147.62 31.3329C147.529 31.7423 147.404 32.2656 147.245 32.9025C147.108 33.5167 147.04 34.256 147.04 35.1205C147.063 35.075 147.074 35.0522 147.074 35.0522C147.097 35.0522 147.108 35.0522 147.108 35.0522L147.21 34.9499L148.814 32.2542C148.905 32.0949 149.03 31.8788 149.19 31.6058C149.349 31.3329 149.531 31.0713 149.736 30.821C149.94 30.5708 150.145 30.3547 150.35 30.1727C150.577 29.968 150.793 29.8656 150.998 29.8656C151.521 29.8656 151.862 30.1386 152.022 30.6845C152.181 31.2078 152.261 31.7423 152.261 32.2883ZM160.716 36.5536C160.716 36.0759 160.83 35.4844 161.057 34.7792C161.307 34.0513 161.626 33.3575 162.013 32.6978C162.422 32.0153 162.889 31.4466 163.412 30.9916C163.958 30.5139 164.526 30.2751 165.118 30.2751C165.527 30.2751 165.88 30.3774 166.176 30.5822C166.471 30.7869 166.699 31.0144 166.858 31.2646C167.017 31.4921 167.086 31.7082 167.063 31.913C167.063 32.1177 166.949 32.2201 166.722 32.2201C166.471 32.2201 166.233 32.0949 166.005 31.8447C165.778 31.5717 165.505 31.4352 165.186 31.4352C164.936 31.4352 164.629 31.5831 164.265 31.8788C163.924 32.1746 163.503 32.7546 163.002 33.6191C162.775 33.9831 162.559 34.4608 162.354 35.0522C162.172 35.6209 162.081 36.1896 162.081 36.7584C162.126 36.7129 162.138 36.7015 162.115 36.7242C162.115 36.747 162.161 36.7015 162.252 36.5877L162.525 36.1783C162.707 35.9053 162.911 35.5527 163.139 35.1205C163.389 34.6655 163.628 34.2333 163.855 33.8238C164.106 33.3916 164.333 33.0162 164.538 32.6978C164.765 32.3793 164.936 32.2201 165.05 32.2201C165.345 32.2201 165.539 32.311 165.63 32.493C165.743 32.6523 165.812 32.8684 165.834 33.1414C165.857 33.4143 165.869 33.7214 165.869 34.0627C165.869 34.4039 165.903 34.7338 165.971 35.0522C166.107 35.6664 166.312 36.1214 166.585 36.4171C166.881 36.6901 167.211 36.8266 167.575 36.8266C168.212 36.8266 168.917 36.4399 169.69 35.6664C170.009 35.3707 170.225 35.1318 170.339 34.9499C170.475 34.7451 170.668 34.5176 170.919 34.2674C171.078 34.0399 171.283 33.9262 171.533 33.9262C171.669 33.9262 171.772 33.9831 171.84 34.0968C171.908 34.1878 171.92 34.347 171.874 34.5745C171.829 34.7792 171.692 35.0409 171.465 35.3593C171.26 35.6778 170.941 36.0418 170.509 36.4513L169.486 37.2702C168.826 37.7252 168.189 37.9526 167.575 37.9526C167.142 37.9526 166.756 37.8503 166.415 37.6455C166.073 37.4408 165.778 37.1906 165.527 36.8948C165.3 36.5764 165.118 36.2238 164.981 35.837C164.845 35.4503 164.777 35.075 164.777 34.711C164.617 34.8247 164.435 35.0864 164.231 35.4958C164.026 35.8825 163.798 36.292 163.548 36.7242C163.321 37.1337 163.082 37.5091 162.832 37.8503C162.581 38.1915 162.331 38.3621 162.081 38.3621C161.444 38.3621 161.057 38.2143 160.921 37.9185C160.784 37.6228 160.716 37.1678 160.716 36.5536ZM171.568 38.2256C171.204 38.2256 170.954 38.0323 170.818 37.6455C170.681 37.2588 170.613 36.7811 170.613 36.2124C170.636 35.6209 170.715 34.984 170.852 34.3015C171.011 33.6191 171.193 32.9935 171.398 32.4248C171.625 31.8333 171.864 31.3442 172.114 30.9575C172.365 30.5708 172.592 30.3774 172.797 30.3774C173.183 30.3774 173.354 30.5594 173.309 30.9234C173.286 31.2874 173.183 31.7537 173.001 32.3224C172.82 32.8911 172.615 33.5281 172.387 34.2333C172.183 34.9157 172.08 35.5868 172.08 36.2465L173.718 33.7556C173.764 33.6646 173.855 33.5053 173.991 33.2779C174.15 33.0276 174.321 32.7888 174.503 32.5613C174.708 32.311 174.912 32.0949 175.117 31.913C175.345 31.731 175.561 31.64 175.765 31.64C176.038 31.64 176.255 31.822 176.414 32.1859L176.618 34.0968C176.618 34.3015 176.63 34.62 176.653 35.0522C176.675 35.4844 176.721 35.9167 176.789 36.3489C176.88 36.7811 177.017 37.1678 177.199 37.5091C177.381 37.8275 177.631 37.9868 177.949 37.9868C178.29 37.9868 178.643 37.782 179.007 37.3726C179.394 36.9403 179.758 36.474 180.099 35.9735C180.463 35.4503 180.781 34.984 181.054 34.5745C181.35 34.1423 181.578 33.9262 181.737 33.9262C182.078 33.9262 182.226 34.0627 182.18 34.3357C182.158 34.5859 182.055 34.8816 181.873 35.2228C181.691 35.5641 181.487 35.8825 181.259 36.1783C181.032 36.474 180.895 36.656 180.85 36.7242C180.736 36.8835 180.577 37.0768 180.372 37.3043C180.19 37.5318 179.985 37.7593 179.758 37.9868C179.553 38.1915 179.337 38.3849 179.109 38.5669C178.905 38.7488 178.7 38.8626 178.495 38.9081C178.268 38.9763 178.052 39.0104 177.847 39.0104C177.324 39.0104 176.903 38.8171 176.584 38.4304C176.289 38.0436 176.061 37.6228 175.902 37.1678C175.743 36.6446 175.629 36.1783 175.561 35.7688C175.515 35.3366 175.492 34.9499 175.492 34.6086C175.492 34.2674 175.492 33.9717 175.492 33.7214C175.492 33.4712 175.458 33.2665 175.39 33.1072C175.117 33.2892 174.821 33.6646 174.503 34.2333C174.207 34.7792 173.889 35.348 173.547 35.9394C173.229 36.5309 172.899 37.0655 172.558 37.5432C172.239 37.9981 171.91 38.2256 171.568 38.2256ZM180.877 35.837C180.877 35.4731 180.911 35.0636 180.98 34.6086C181.071 34.1537 181.184 33.7101 181.321 33.2779C181.48 32.8229 181.651 32.3907 181.833 31.9812C182.037 31.5717 182.242 31.2305 182.447 30.9575C182.697 30.6845 182.947 30.548 183.197 30.548C183.402 30.548 183.607 30.6049 183.812 30.7187C183.834 30.8324 183.857 30.912 183.88 30.9575C183.925 31.003 183.948 31.1054 183.948 31.2646C183.948 31.2874 183.834 31.5149 183.607 31.9471C183.402 32.3565 183.186 32.8684 182.959 33.4826C182.731 34.074 182.538 34.711 182.379 35.3935C182.242 36.0759 182.242 36.7015 182.379 37.2702C182.652 37.1792 182.879 37.0086 183.061 36.7584C183.266 36.4854 183.459 36.2351 183.641 36.0077L185.688 33.0049C185.916 32.6864 186.109 32.4134 186.269 32.1859C186.428 31.9357 186.667 31.8106 186.985 31.8106C187.213 31.8106 187.36 31.9357 187.429 32.1859C187.52 32.4134 187.565 32.6978 187.565 33.039C187.588 33.3802 187.588 33.7328 187.565 34.0968C187.542 34.438 187.542 34.7224 187.565 34.9499C187.679 35.7688 187.85 36.3489 188.077 36.6901C188.327 37.0086 188.612 37.1678 188.93 37.1678C189.317 37.1678 189.726 37.0086 190.158 36.6901C190.613 36.3489 191.046 35.9849 191.455 35.5982C191.865 35.1887 192.24 34.8247 192.581 34.5063C192.922 34.165 193.173 33.9944 193.332 33.9944C193.468 33.9944 193.593 34.0286 193.707 34.0968C193.821 34.1423 193.878 34.256 193.878 34.438C193.878 34.5745 193.787 34.7565 193.605 34.984C193.446 35.1887 193.252 35.4048 193.025 35.6323C192.82 35.8598 192.604 36.0759 192.376 36.2806C192.172 36.4626 192.012 36.5991 191.899 36.6901C191.444 37.1223 190.943 37.4977 190.397 37.8162C189.874 38.1119 189.351 38.2597 188.828 38.2597C188.259 38.2597 187.815 38.1119 187.497 37.8162C187.178 37.4977 186.94 37.111 186.78 36.656C186.621 36.1783 186.519 35.6892 186.473 35.1887C186.45 34.6655 186.439 34.1992 186.439 33.7897C186.303 33.8807 186.132 34.0854 185.927 34.4039C185.745 34.6996 185.597 34.9385 185.484 35.1205C185.347 35.348 185.154 35.6664 184.904 36.0759C184.653 36.4854 184.369 36.8835 184.051 37.2702C183.755 37.6342 183.448 37.964 183.129 38.2597C182.834 38.5327 182.549 38.6692 182.276 38.6692C181.889 38.6692 181.594 38.5782 181.389 38.3962C181.207 38.2143 181.071 37.9868 180.98 37.7138C180.911 37.4181 180.877 37.111 180.877 36.7925C180.877 36.4513 180.877 36.1328 180.877 35.837ZM193.942 33.8238C194.147 33.7101 194.375 33.5736 194.625 33.4143C194.898 33.2551 195.148 33.0845 195.375 32.9025C195.603 32.6978 195.796 32.4817 195.956 32.2542C196.115 32.0039 196.206 31.7423 196.229 31.4694C196.001 31.5149 195.762 31.6286 195.512 31.8106C195.262 31.9698 195.034 32.1632 194.83 32.3907C194.625 32.6182 194.443 32.8684 194.284 33.1414C194.124 33.3916 194.011 33.6191 193.942 33.8238ZM192.407 34.6428C192.407 34.2105 192.521 33.7556 192.748 33.2779C192.976 32.7774 193.26 32.3224 193.601 31.913C193.942 31.4807 194.329 31.1281 194.761 30.8552C195.194 30.5594 195.614 30.4116 196.024 30.4116C196.775 30.4116 197.161 30.6959 197.184 31.2646C197.229 31.8333 196.991 32.4475 196.467 33.1072C196.194 33.4257 195.785 33.7783 195.239 34.165C194.693 34.529 194.158 34.7338 193.635 34.7792C193.635 35.1432 193.647 35.4731 193.669 35.7688C193.692 36.0418 193.851 36.3261 194.147 36.6219C194.443 36.9176 194.818 37.0655 195.273 37.0655C195.569 37.0655 195.876 37.0086 196.194 36.8948C196.513 36.7811 196.82 36.656 197.116 36.5195C197.411 36.3603 197.684 36.201 197.935 36.0418C198.208 35.8598 198.424 35.7006 198.583 35.5641C198.72 35.4503 198.822 35.3593 198.89 35.2911C198.981 35.2228 199.083 35.1432 199.197 35.0522C199.538 34.7792 199.777 34.5631 199.914 34.4039C200.073 34.2447 200.187 34.1195 200.255 34.0286C200.346 33.9376 200.437 33.8807 200.528 33.8579C200.642 33.8352 200.824 33.8238 201.074 33.8238C201.119 34.074 201.131 34.2447 201.108 34.3357C201.108 34.4266 201.028 34.5631 200.869 34.7451C200.551 35.0636 200.175 35.4162 199.743 35.8029C199.311 36.1896 198.833 36.5536 198.31 36.8948C197.81 37.2361 197.286 37.5204 196.74 37.7479C196.217 37.9754 195.694 38.0891 195.171 38.0891C194.397 38.0891 193.738 37.8162 193.192 37.2702C192.782 36.8607 192.543 36.4399 192.475 36.0077C192.43 35.5754 192.407 35.1205 192.407 34.6428ZM199.839 37.3726C199.839 36.5309 199.873 35.6323 199.941 34.6769C200.032 33.6987 200.146 32.7205 200.282 31.7423C200.419 30.7414 200.578 29.7746 200.76 28.8419C200.942 27.8865 201.135 27.0221 201.34 26.2486C201.408 25.9984 201.488 25.7254 201.579 25.4297C201.67 25.1112 201.772 24.8155 201.886 24.5425C202 24.2695 202.125 24.042 202.261 23.86C202.421 23.6553 202.614 23.5529 202.841 23.5529C203.114 23.5529 203.285 23.6553 203.353 23.86C203.421 24.0648 203.421 24.3036 203.353 24.5766C203.308 24.8496 203.239 25.1112 203.149 25.3614C203.058 25.6117 203.001 25.7823 202.978 25.8733C202.819 26.442 202.637 27.1927 202.432 28.1253C202.25 29.058 202.057 30.0703 201.852 31.1623C201.67 32.2542 201.511 33.3916 201.374 34.5745C201.238 35.7347 201.147 36.8493 201.101 37.9185C201.056 38.9877 201.067 39.9545 201.135 40.8189C201.226 41.7061 201.397 42.3886 201.647 42.8663C202.034 42.6616 202.352 42.3545 202.603 41.945C202.853 41.5355 203.069 41.1374 203.251 40.7507C203.774 39.7498 204.286 38.692 204.786 37.5773C205.287 36.4626 205.81 35.4162 206.356 34.438C206.538 34.074 206.731 33.8921 206.936 33.8921C207.027 33.8921 207.095 33.9376 207.141 34.0286C207.209 34.0968 207.243 34.1764 207.243 34.2674C207.243 34.3129 207.186 34.4608 207.073 34.711C206.959 34.9385 206.834 35.2001 206.697 35.4958C206.561 35.7688 206.424 36.0304 206.288 36.2806C206.151 36.5309 206.06 36.7015 206.015 36.7925C205.833 37.1565 205.639 37.5773 205.435 38.055C205.23 38.51 205.025 38.9763 204.821 39.454C204.616 39.909 204.411 40.3526 204.206 40.7848C204.002 41.217 203.808 41.5924 203.626 41.9109C203.535 42.0474 203.421 42.218 203.285 42.4227C203.171 42.6502 203.035 42.8663 202.876 43.071C202.716 43.2758 202.534 43.4464 202.33 43.5829C202.148 43.7194 201.954 43.7876 201.749 43.7876C201.295 43.7876 200.931 43.5601 200.658 43.1052C200.407 42.6502 200.214 42.0815 200.077 41.399C199.964 40.7393 199.895 40.0455 199.873 39.3175C199.85 38.5669 199.839 37.9185 199.839 37.3726ZM217.363 29.0467C217.386 28.7737 217.477 28.4211 217.636 27.9889C217.818 27.5339 218.011 27.0675 218.216 26.5898C218.444 26.1121 218.66 25.6571 218.864 25.2249C219.069 24.77 219.228 24.4174 219.342 24.1671C219.365 24.1216 219.388 24.0306 219.41 23.8941C219.433 23.7577 219.467 23.6212 219.513 23.4847C219.558 23.3482 219.626 23.2231 219.717 23.1093C219.831 22.9956 219.979 22.9387 220.161 22.9387C220.639 22.9387 220.821 23.2344 220.707 23.8259C220.593 24.3946 220.377 25.0884 220.059 25.9074C219.74 26.7036 219.399 27.5225 219.035 28.3642C218.671 29.1831 218.489 29.8429 218.489 30.3433C218.671 30.3888 218.83 30.4684 218.967 30.5822C219.126 30.6959 219.274 30.8097 219.41 30.9234C219.843 31.1964 220.229 31.4011 220.57 31.5376C220.912 31.6741 221.242 31.7878 221.56 31.8788C221.901 31.9698 222.242 32.0494 222.584 32.1177C222.948 32.1632 223.357 32.2201 223.812 32.2883C224.062 32.311 224.381 32.3224 224.768 32.3224C225.177 32.3224 225.575 32.3338 225.962 32.3565C226.349 32.3793 226.678 32.4362 226.951 32.5272C227.247 32.6182 227.395 32.766 227.395 32.9708C227.395 33.13 227.247 33.2437 226.951 33.312C226.656 33.3575 226.28 33.3802 225.825 33.3802C225.484 33.3802 225.132 33.3688 224.768 33.3461C224.404 33.3234 224.051 33.3006 223.71 33.2779C223.391 33.2324 223.096 33.1982 222.823 33.1755C222.572 33.13 222.39 33.0959 222.277 33.0731C221.617 32.9594 221.06 32.8115 220.605 32.6295C220.15 32.4475 219.763 32.2769 219.444 32.1177C219.126 31.9357 218.864 31.7765 218.66 31.64C218.455 31.4807 218.273 31.3897 218.114 31.367C218.091 31.5945 218.034 31.8333 217.943 32.0836C217.875 32.311 217.818 32.5499 217.772 32.8001C217.636 33.4598 217.499 34.2105 217.363 35.0522C217.249 35.8712 217.158 36.6105 217.09 37.2702C217.044 37.7024 217.01 38.0664 216.988 38.3621C216.965 38.6351 216.953 38.8967 216.953 39.1469C216.953 39.3744 216.942 39.6019 216.919 39.8294C216.919 40.0569 216.908 40.3071 216.885 40.5801C216.817 41.2853 216.817 42.0587 216.885 42.9004C216.953 43.7649 217.079 44.6179 217.261 45.4596C217.465 46.3013 217.738 47.0975 218.08 47.8482C218.444 48.6216 218.876 49.2586 219.376 49.7591C219.399 49.7818 219.41 49.8045 219.41 49.8273C219.433 49.8273 219.444 49.8387 219.444 49.8614C219.467 49.8842 219.49 49.8955 219.513 49.8955C219.968 50.305 220.434 50.6462 220.912 50.9192C221.412 51.1922 222.026 51.3287 222.754 51.3287C224.051 51.3287 225.257 50.8965 226.371 50.032C227.486 49.1903 228.453 48.1325 229.272 46.8586C230.113 45.6075 230.796 44.2767 231.319 42.8663C231.865 41.4559 232.218 40.182 232.377 39.0446C232.422 38.6578 232.479 38.2143 232.547 37.7138C232.616 37.2133 232.673 36.7015 232.718 36.1783C232.764 35.6323 232.798 35.1091 232.82 34.6086C232.843 34.1082 232.832 33.6646 232.786 33.2779C232.764 33.0504 232.752 32.7319 232.752 32.3224C232.752 31.913 232.729 31.5831 232.684 31.3329C232.593 30.5367 232.491 29.8201 232.377 29.1831C232.263 28.5462 232.127 27.9434 231.967 27.3747C231.808 26.7832 231.615 26.2031 231.387 25.6344C231.183 25.0429 230.91 24.3946 230.568 23.6894C230.204 22.8932 229.715 22.0857 229.101 21.2667C228.51 20.425 227.827 19.663 227.054 18.9805C226.28 18.298 225.439 17.7407 224.529 17.3085C223.642 16.8763 222.72 16.6602 221.765 16.6602C220.536 16.6602 219.479 17.0583 218.591 17.8545C217.727 18.6279 217.033 19.5378 216.51 20.5843C216.214 21.244 215.975 21.9378 215.793 22.6657C215.634 23.3709 215.566 24.0875 215.589 24.8155C215.611 25.5207 215.725 26.2145 215.93 26.8969C216.157 27.5566 216.51 28.1822 216.988 28.7737C217.079 28.8874 217.113 28.9557 217.09 28.9784C217.09 28.9784 217.181 29.0012 217.363 29.0467ZM214.599 24.133C214.599 23.4733 214.69 22.7909 214.872 22.0857C215.077 21.3577 215.35 20.6639 215.691 20.0042C216.055 19.3217 216.476 18.6848 216.953 18.0933C217.431 17.5019 217.943 17.0241 218.489 16.6602C219.149 16.1825 219.729 15.9095 220.229 15.8412C220.752 15.7502 221.401 15.7047 222.174 15.7047C223.039 15.7047 223.892 15.9095 224.733 16.3189C225.598 16.7057 226.417 17.2061 227.19 17.8203C227.964 18.4345 228.669 19.117 229.306 19.8677C229.943 20.5956 230.466 21.3122 230.875 22.0174C231.763 23.5416 232.445 25.1681 232.923 26.8969C233.401 28.6258 233.685 30.3888 233.776 32.1859C233.89 33.9603 233.821 35.7461 233.571 37.5432C233.321 39.3403 232.923 41.0805 232.377 42.7639C232.036 43.7876 231.569 44.8568 230.978 45.9714C230.386 47.1089 229.67 48.1439 228.828 49.0766C227.986 50.0093 227.042 50.7827 225.996 51.3969C224.972 52.0111 223.846 52.3182 222.618 52.3182C221.503 52.3182 220.468 51.9998 219.513 51.3628C218.557 50.7259 217.738 49.7818 217.056 48.5306C216.487 47.4615 216.078 46.2444 215.827 44.8795C215.577 43.5374 215.441 42.1497 215.418 40.7166C215.395 39.2834 215.475 37.8617 215.657 36.4513C215.839 35.0409 216.066 33.7556 216.339 32.5954C216.385 32.3679 216.43 32.1632 216.476 31.9812C216.521 31.7765 216.567 31.5717 216.612 31.367C216.703 30.9803 216.771 30.73 216.817 30.6163C216.885 30.4798 216.908 30.3661 216.885 30.2751C216.862 30.1841 216.783 30.0817 216.646 29.968C216.51 29.8315 216.305 29.5926 216.032 29.2514C215.441 28.4552 215.054 27.6476 214.872 26.8287C214.69 25.987 214.599 25.0884 214.599 24.133ZM235.394 37.3726C235.394 36.5309 235.428 35.6323 235.496 34.6769C235.587 33.6987 235.701 32.7205 235.838 31.7423C235.974 30.7414 236.133 29.7746 236.315 28.8419C236.497 27.8865 236.691 27.0221 236.895 26.2486C236.964 25.9984 237.043 25.7254 237.134 25.4297C237.225 25.1112 237.328 24.8155 237.441 24.5425C237.555 24.2695 237.68 24.042 237.817 23.86C237.976 23.6553 238.169 23.5529 238.397 23.5529C238.67 23.5529 238.84 23.6553 238.909 23.86C238.977 24.0648 238.977 24.3036 238.909 24.5766C238.863 24.8496 238.795 25.1112 238.704 25.3614C238.613 25.6117 238.556 25.7823 238.533 25.8733C238.374 26.442 238.192 27.1927 237.987 28.1253C237.805 29.058 237.612 30.0703 237.407 31.1623C237.225 32.2542 237.066 33.3916 236.93 34.5745C236.793 35.7347 236.702 36.8493 236.657 37.9185C236.611 38.9877 236.622 39.9545 236.691 40.8189C236.782 41.7061 236.952 42.3886 237.203 42.8663C237.589 42.6616 237.908 42.3545 238.158 41.945C238.408 41.5355 238.624 41.1374 238.806 40.7507C239.33 39.7498 239.841 38.692 240.342 37.5773C240.842 36.4626 241.366 35.4162 241.911 34.438C242.093 34.074 242.287 33.8921 242.492 33.8921C242.583 33.8921 242.651 33.9376 242.696 34.0286C242.765 34.0968 242.799 34.1764 242.799 34.2674C242.799 34.3129 242.742 34.4608 242.628 34.711C242.514 34.9385 242.389 35.2001 242.253 35.4958C242.116 35.7688 241.98 36.0304 241.843 36.2806C241.707 36.5309 241.616 36.7015 241.57 36.7925C241.388 37.1565 241.195 37.5773 240.99 38.055C240.785 38.51 240.581 38.9763 240.376 39.454C240.171 39.909 239.966 40.3526 239.762 40.7848C239.557 41.217 239.364 41.5924 239.182 41.9109C239.091 42.0474 238.977 42.218 238.84 42.4227C238.727 42.6502 238.59 42.8663 238.431 43.071C238.272 43.2758 238.09 43.4464 237.885 43.5829C237.703 43.7194 237.51 43.7876 237.305 43.7876C236.85 43.7876 236.486 43.5601 236.213 43.1052C235.963 42.6502 235.769 42.0815 235.633 41.399C235.519 40.7393 235.451 40.0455 235.428 39.3175C235.405 38.5669 235.394 37.9185 235.394 37.3726ZM241.358 35.837C241.358 35.4731 241.392 35.0636 241.46 34.6086C241.551 34.1537 241.665 33.7101 241.802 33.2779C241.961 32.8229 242.131 32.3907 242.313 31.9812C242.518 31.5717 242.723 31.2305 242.928 30.9575C243.178 30.6845 243.428 30.548 243.678 30.548C243.883 30.548 244.088 30.6049 244.293 30.7187C244.315 30.8324 244.338 30.912 244.361 30.9575C244.406 31.003 244.429 31.1054 244.429 31.2646C244.429 31.2874 244.315 31.5149 244.088 31.9471C243.883 32.3565 243.667 32.8684 243.44 33.4826C243.212 34.074 243.019 34.711 242.859 35.3935C242.723 36.0759 242.723 36.7015 242.859 37.2702C243.132 37.1792 243.36 37.0086 243.542 36.7584C243.747 36.4854 243.94 36.2351 244.122 36.0077L246.169 33.0049C246.397 32.6864 246.59 32.4134 246.749 32.1859C246.909 31.9357 247.148 31.8106 247.466 31.8106C247.693 31.8106 247.841 31.9357 247.91 32.1859C248.001 32.4134 248.046 32.6978 248.046 33.039C248.069 33.3802 248.069 33.7328 248.046 34.0968C248.023 34.438 248.023 34.7224 248.046 34.9499C248.16 35.7688 248.33 36.3489 248.558 36.6901C248.808 37.0086 249.092 37.1678 249.411 37.1678C249.798 37.1678 250.207 37.0086 250.639 36.6901C251.094 36.3489 251.527 35.9849 251.936 35.5982C252.346 35.1887 252.721 34.8247 253.062 34.5063C253.403 34.165 253.654 33.9944 253.813 33.9944C253.949 33.9944 254.074 34.0286 254.188 34.0968C254.302 34.1423 254.359 34.256 254.359 34.438C254.359 34.5745 254.268 34.7565 254.086 34.984C253.927 35.1887 253.733 35.4048 253.506 35.6323C253.301 35.8598 253.085 36.0759 252.857 36.2806C252.653 36.4626 252.493 36.5991 252.38 36.6901C251.925 37.1223 251.424 37.4977 250.878 37.8162C250.355 38.1119 249.832 38.2597 249.309 38.2597C248.74 38.2597 248.296 38.1119 247.978 37.8162C247.659 37.4977 247.42 37.111 247.261 36.656C247.102 36.1783 247 35.6892 246.954 35.1887C246.931 34.6655 246.92 34.1992 246.92 33.7897C246.784 33.8807 246.613 34.0854 246.408 34.4039C246.226 34.6996 246.078 34.9385 245.965 35.1205C245.828 35.348 245.635 35.6664 245.385 36.0759C245.134 36.4854 244.85 36.8835 244.531 37.2702C244.236 37.6342 243.929 37.964 243.61 38.2597C243.314 38.5327 243.03 38.6692 242.757 38.6692C242.37 38.6692 242.075 38.5782 241.87 38.3962C241.688 38.2143 241.551 37.9868 241.46 37.7138C241.392 37.4181 241.358 37.111 241.358 36.7925C241.358 36.4513 241.358 36.1328 241.358 35.837ZM252.854 52.5912C253.309 52.5912 253.764 52.3637 254.219 51.9088C254.673 51.4538 255.026 51.033 255.276 50.6462C255.663 49.9865 255.97 49.2927 256.198 48.5648C256.448 47.8596 256.641 47.1316 256.778 46.3809C256.914 45.653 257.017 44.925 257.085 44.1971C257.176 43.4691 257.267 42.7526 257.358 42.0474L257.494 40.0682C257.381 40.1137 257.221 40.2275 257.017 40.4095C256.835 40.6142 256.641 40.8303 256.436 41.0578C256.232 41.308 256.038 41.5469 255.856 41.7744C255.697 42.0246 255.583 42.1952 255.515 42.2862C255.333 42.5364 255.106 42.8435 254.833 43.2075C254.56 43.5715 254.287 43.9582 254.014 44.3677C253.741 44.7999 253.479 45.2208 253.229 45.6302C252.979 46.0397 252.785 46.4037 252.649 46.7221C252.558 46.9496 252.387 47.3818 252.137 48.0188C251.887 48.6558 251.705 49.3155 251.591 49.9979C251.477 50.6804 251.489 51.2832 251.625 51.8064C251.762 52.3296 252.171 52.5912 252.854 52.5912ZM252.478 37.0996C252.478 36.5536 252.649 35.9053 252.99 35.1546C253.331 34.3812 253.764 33.6532 254.287 32.9708C254.81 32.2883 255.39 31.7082 256.027 31.2305C256.664 30.7528 257.29 30.5139 257.904 30.5139C258.541 30.5139 258.984 30.7414 259.235 31.1964C259.508 31.6513 259.496 32.1063 259.2 32.5613C258.996 32.5385 258.848 32.4703 258.757 32.3565C258.666 32.2428 258.586 32.1177 258.518 31.9812C258.45 31.8447 258.37 31.7196 258.279 31.6058C258.188 31.4921 258.052 31.4352 257.87 31.4352C257.392 31.4352 256.891 31.6741 256.368 32.1518C255.845 32.6068 255.356 33.1641 254.901 33.8238C254.469 34.4835 254.105 35.166 253.809 35.8712C253.536 36.5764 253.4 37.1678 253.4 37.6455C253.809 37.5318 254.173 37.3043 254.492 36.9631C254.81 36.5991 255.083 36.3034 255.31 36.0759C255.538 35.8257 255.788 35.5072 256.061 35.1205C256.357 34.7338 256.607 34.3925 256.812 34.0968C256.926 33.9148 257.073 33.6873 257.255 33.4143C257.437 33.1414 257.665 33.0049 257.938 33.0049C258.188 33.0049 258.381 33.1641 258.518 33.4826C258.654 33.7783 258.745 34.1423 258.791 34.5745C258.836 34.984 258.859 35.4162 258.859 35.8712C258.859 36.3261 258.859 36.7015 258.859 36.9972C259.041 36.9517 259.326 36.7811 259.712 36.4854C260.099 36.1669 260.508 35.8257 260.941 35.4617C261.396 35.0977 261.839 34.7792 262.271 34.5063C262.726 34.2105 263.102 34.0627 263.397 34.0627C263.534 34.0627 263.625 34.1423 263.67 34.3015C263.716 34.438 263.705 34.5745 263.636 34.711C263.614 34.7338 263.443 34.8702 263.125 35.1205C262.829 35.348 262.476 35.6209 262.067 35.9394C261.657 36.2351 261.248 36.5422 260.838 36.8607C260.429 37.1792 260.122 37.4408 259.917 37.6455C259.735 37.8048 259.542 37.9413 259.337 38.055C259.132 38.1688 259.007 38.3735 258.962 38.6692C258.893 39.3062 258.859 39.909 258.859 40.4777C258.859 41.1602 258.802 41.9336 258.689 42.7981C258.598 43.6852 258.461 44.5724 258.279 45.4596C258.097 46.3468 257.881 47.1885 257.631 47.9847C257.403 48.7809 257.153 49.452 256.88 49.9979C256.22 51.2946 255.527 52.2045 254.799 52.7277C254.093 53.2737 253.445 53.5467 252.854 53.5467C252.217 53.5467 251.693 53.3078 251.284 52.8301C250.875 52.3751 250.67 51.8064 250.67 51.124C250.67 50.578 250.693 50.0889 250.738 49.6567C250.784 49.2472 250.863 48.8491 250.977 48.4624C251.091 48.0984 251.227 47.7231 251.386 47.3364C251.546 46.9496 251.75 46.5174 252.001 46.0397C252.683 44.652 253.445 43.3895 254.287 42.2521C255.151 41.1147 256.107 39.9886 257.153 38.874C257.449 38.5555 257.574 38.0323 257.528 37.3043C257.506 36.5536 257.494 35.8257 257.494 35.1205C257.312 35.1887 257.051 35.4731 256.709 35.9735C256.391 36.4513 256.038 36.8607 255.652 37.2019C255.401 37.4522 255.072 37.7593 254.662 38.1233C254.253 38.4872 253.832 38.6692 253.4 38.6692C253.149 38.6692 252.956 38.6123 252.819 38.4986C252.683 38.3849 252.592 38.2484 252.547 38.0891C252.501 37.9299 252.478 37.7593 252.478 37.5773C252.478 37.3953 252.478 37.2361 252.478 37.0996ZM263.954 44.1971C264.477 44.1971 264.955 44.0492 265.387 43.7535C265.819 43.4578 266.217 43.0938 266.581 42.6616C266.945 42.2521 267.263 41.7971 267.536 41.2967C267.832 40.8189 268.082 40.3867 268.287 40C268.173 40.0455 267.98 40.1251 267.707 40.2389C267.434 40.3753 267.138 40.5232 266.82 40.6825C266.524 40.8644 266.24 41.0351 265.967 41.1943C265.694 41.3535 265.5 41.4673 265.387 41.5355C265.091 41.7175 264.761 41.9564 264.397 42.2521C264.056 42.5706 263.772 42.8663 263.544 43.1393C263.339 43.435 263.248 43.6852 263.271 43.89C263.294 44.0947 263.521 44.1971 263.954 44.1971ZM262.862 37.8503C262.862 36.9858 262.896 35.9167 262.964 34.6428C263.032 33.3461 263.135 32.0153 263.271 30.6504C263.408 29.2855 263.59 27.9775 263.817 26.7263C264.045 25.4524 264.318 24.4174 264.636 23.6212C264.818 23.1662 264.989 22.8591 265.148 22.6999C265.307 22.5179 265.455 22.4269 265.591 22.4269C265.751 22.4269 265.876 22.5065 265.967 22.6657C266.058 22.825 266.092 22.9615 266.069 23.0752C266.069 23.1207 266.035 23.2458 265.967 23.4506C265.921 23.6325 265.887 23.8032 265.864 23.9624C265.682 24.6676 265.489 25.6117 265.284 26.7946C265.08 27.9547 264.886 29.1718 264.704 30.4457C264.545 31.6968 264.409 32.9139 264.295 34.0968C264.204 35.257 264.158 36.1783 264.158 36.8607L264.909 35.6323C265.091 35.2456 265.353 34.8589 265.694 34.4721C266.058 33.9717 266.456 33.585 266.888 33.312C267.343 33.0162 267.798 32.8684 268.253 32.8684C268.981 32.8684 269.561 33.2551 269.993 34.0286C270.38 34.7792 270.539 35.4503 270.471 36.0418C270.403 36.6332 270.369 37.1906 270.369 37.7138C270.687 37.5318 270.949 37.3953 271.153 37.3043C271.381 37.1906 271.586 37.0768 271.768 36.9631C271.972 36.8493 272.177 36.7242 272.382 36.5877C272.609 36.4513 272.871 36.2693 273.167 36.0418C273.326 35.928 273.531 35.7688 273.781 35.5641C274.031 35.3366 274.281 35.1205 274.532 34.9157C274.782 34.711 274.998 34.529 275.18 34.3698C275.385 34.2105 275.521 34.1309 275.589 34.1309C275.931 34.1309 276.113 34.2105 276.135 34.3698C276.158 34.5063 276.101 34.6655 275.965 34.8475C275.851 35.0295 275.703 35.2001 275.521 35.3593C275.362 35.5186 275.26 35.6096 275.214 35.6323C274.964 35.9053 274.702 36.1442 274.429 36.3489C274.156 36.5536 273.883 36.7811 273.61 37.0313C273.337 37.2361 272.996 37.4522 272.587 37.6797C272.2 37.9071 271.813 38.1346 271.426 38.3621C271.062 38.5896 270.733 38.7943 270.437 38.9763C270.164 39.1356 270.005 39.2493 269.959 39.3175C269.891 39.4313 269.777 39.6929 269.618 40.1024C269.481 40.5118 269.277 40.9782 269.004 41.5014C268.731 42.0246 268.378 42.5478 267.946 43.071C267.514 43.617 266.979 44.0833 266.342 44.4701C265.546 44.9705 264.738 45.2208 263.919 45.2208C263.442 45.2208 263.032 45.0956 262.691 44.8454C262.35 44.6179 262.179 44.2426 262.179 43.7194C262.179 43.2189 262.407 42.7184 262.862 42.218C263.339 41.7403 263.897 41.2853 264.534 40.8531C265.171 40.4208 265.819 40.0341 266.479 39.6929C267.161 39.3289 267.707 39.0446 268.117 38.8398C268.435 38.6806 268.628 38.5782 268.697 38.5327C268.788 38.4872 268.879 38.2711 268.97 37.8844C269.083 37.4067 269.152 36.9403 269.174 36.4854C269.197 36.0077 269.174 35.5868 269.106 35.2228C269.038 34.8589 268.913 34.5631 268.731 34.3357C268.571 34.1082 268.367 33.9944 268.117 33.9944C267.684 33.9944 267.138 34.3698 266.479 35.1205C266.046 35.6437 265.682 36.201 265.387 36.7925C265.114 37.3839 264.864 37.9413 264.636 38.4645C264.431 38.9649 264.249 39.3858 264.09 39.727C263.931 40.0682 263.772 40.2389 263.612 40.2389C263.385 40.2389 263.214 40.1592 263.101 40C262.987 39.8408 262.907 39.6474 262.862 39.4199C262.839 39.1697 262.828 38.9081 262.828 38.6351C262.85 38.3394 262.862 38.0778 262.862 37.8503ZM276.083 33.8238C276.288 33.7101 276.515 33.5736 276.766 33.4143C277.039 33.2551 277.289 33.0845 277.516 32.9025C277.744 32.6978 277.937 32.4817 278.096 32.2542C278.256 32.0039 278.347 31.7423 278.369 31.4694C278.142 31.5149 277.903 31.6286 277.653 31.8106C277.403 31.9698 277.175 32.1632 276.97 32.3907C276.766 32.6182 276.584 32.8684 276.424 33.1414C276.265 33.3916 276.151 33.6191 276.083 33.8238ZM274.548 34.6428C274.548 34.2105 274.661 33.7556 274.889 33.2779C275.116 32.7774 275.401 32.3224 275.742 31.913C276.083 31.4807 276.47 31.1281 276.902 30.8552C277.334 30.5594 277.755 30.4116 278.165 30.4116C278.915 30.4116 279.302 30.6959 279.325 31.2646C279.37 31.8333 279.131 32.4475 278.608 33.1072C278.335 33.4257 277.926 33.7783 277.38 34.165C276.834 34.529 276.299 34.7338 275.776 34.7792C275.776 35.1432 275.787 35.4731 275.81 35.7688C275.833 36.0418 275.992 36.3261 276.288 36.6219C276.584 36.9176 276.959 37.0655 277.414 37.0655C277.71 37.0655 278.017 37.0086 278.335 36.8948C278.654 36.7811 278.961 36.656 279.256 36.5195C279.552 36.3603 279.825 36.201 280.075 36.0418C280.348 35.8598 280.565 35.7006 280.724 35.5641C280.86 35.4503 280.963 35.3593 281.031 35.2911C281.122 35.2228 281.224 35.1432 281.338 35.0522C281.679 34.7792 281.918 34.5631 282.055 34.4039C282.214 34.2447 282.328 34.1195 282.396 34.0286C282.487 33.9376 282.578 33.8807 282.669 33.8579C282.782 33.8352 282.964 33.8238 283.215 33.8238C283.26 34.074 283.272 34.2447 283.249 34.3357C283.249 34.4266 283.169 34.5631 283.01 34.7451C282.691 35.0636 282.316 35.4162 281.884 35.8029C281.452 36.1896 280.974 36.5536 280.451 36.8948C279.95 37.2361 279.427 37.5204 278.881 37.7479C278.358 37.9754 277.835 38.0891 277.312 38.0891C276.538 38.0891 275.878 37.8162 275.332 37.2702C274.923 36.8607 274.684 36.4399 274.616 36.0077C274.57 35.5754 274.548 35.1205 274.548 34.6428ZM282.867 38.2256C282.503 38.2256 282.252 38.0323 282.116 37.6455C281.979 37.2588 281.911 36.7811 281.911 36.2124C281.934 35.6209 282.013 34.984 282.15 34.3015C282.309 33.6191 282.491 32.9935 282.696 32.4248C282.923 31.8333 283.162 31.3442 283.412 30.9575C283.663 30.5708 283.89 30.3774 284.095 30.3774C284.482 30.3774 284.652 30.5594 284.607 30.9234C284.584 31.2874 284.482 31.7537 284.3 32.3224C284.118 32.8911 283.913 33.5281 283.685 34.2333C283.481 34.9157 283.378 35.5868 283.378 36.2465L285.016 33.7556C285.062 33.6646 285.153 33.5053 285.289 33.2779C285.448 33.0276 285.619 32.7888 285.801 32.5613C286.006 32.311 286.211 32.0949 286.415 31.913C286.643 31.731 286.859 31.64 287.064 31.64C287.337 31.64 287.553 31.822 287.712 32.1859L287.917 34.0968C287.917 34.3015 287.928 34.62 287.951 35.0522C287.974 35.4844 288.019 35.9167 288.087 36.3489C288.178 36.7811 288.315 37.1678 288.497 37.5091C288.679 37.8275 288.929 37.9868 289.247 37.9868C289.589 37.9868 289.941 37.782 290.305 37.3726C290.692 36.9403 291.056 36.474 291.397 35.9735C291.761 35.4503 292.08 34.984 292.353 34.5745C292.648 34.1423 292.876 33.9262 293.035 33.9262C293.376 33.9262 293.524 34.0627 293.479 34.3357C293.456 34.5859 293.354 34.8816 293.172 35.2228C292.99 35.5641 292.785 35.8825 292.557 36.1783C292.33 36.474 292.193 36.656 292.148 36.7242C292.034 36.8835 291.875 37.0768 291.67 37.3043C291.488 37.5318 291.283 37.7593 291.056 37.9868C290.851 38.1915 290.635 38.3849 290.408 38.5669C290.203 38.7488 289.998 38.8626 289.793 38.9081C289.566 38.9763 289.35 39.0104 289.145 39.0104C288.622 39.0104 288.201 38.8171 287.883 38.4304C287.587 38.0436 287.359 37.6228 287.2 37.1678C287.041 36.6446 286.927 36.1783 286.859 35.7688C286.813 35.3366 286.791 34.9499 286.791 34.6086C286.791 34.2674 286.791 33.9717 286.791 33.7214C286.791 33.4712 286.757 33.2665 286.688 33.1072C286.415 33.2892 286.12 33.6646 285.801 34.2333C285.505 34.7792 285.187 35.348 284.846 35.9394C284.527 36.5309 284.197 37.0655 283.856 37.5432C283.538 37.9981 283.208 38.2256 282.867 38.2256ZM292.141 52.5912C292.596 52.5912 293.051 52.3637 293.506 51.9088C293.961 51.4538 294.314 51.033 294.564 50.6462C294.951 49.9865 295.258 49.2927 295.485 48.5648C295.735 47.8596 295.929 47.1316 296.065 46.3809C296.202 45.653 296.304 44.925 296.372 44.1971C296.463 43.4691 296.554 42.7526 296.645 42.0474L296.782 40.0682C296.668 40.1137 296.509 40.2275 296.304 40.4095C296.122 40.6142 295.929 40.8303 295.724 41.0578C295.519 41.308 295.326 41.5469 295.144 41.7744C294.985 42.0246 294.871 42.1952 294.803 42.2862C294.621 42.5364 294.393 42.8435 294.12 43.2075C293.847 43.5715 293.574 43.9582 293.301 44.3677C293.028 44.7999 292.767 45.2208 292.517 45.6302C292.266 46.0397 292.073 46.4037 291.936 46.7221C291.845 46.9496 291.675 47.3818 291.425 48.0188C291.174 48.6558 290.992 49.3155 290.879 49.9979C290.765 50.6804 290.776 51.2832 290.913 51.8064C291.049 52.3296 291.459 52.5912 292.141 52.5912ZM291.766 37.0996C291.766 36.5536 291.936 35.9053 292.278 35.1546C292.619 34.3812 293.051 33.6532 293.574 32.9708C294.098 32.2883 294.678 31.7082 295.315 31.2305C295.952 30.7528 296.577 30.5139 297.191 30.5139C297.828 30.5139 298.272 30.7414 298.522 31.1964C298.795 31.6513 298.784 32.1063 298.488 32.5613C298.283 32.5385 298.135 32.4703 298.044 32.3565C297.953 32.2428 297.874 32.1177 297.806 31.9812C297.737 31.8447 297.658 31.7196 297.567 31.6058C297.476 31.4921 297.339 31.4352 297.157 31.4352C296.68 31.4352 296.179 31.6741 295.656 32.1518C295.133 32.6068 294.644 33.1641 294.189 33.8238C293.756 34.4835 293.392 35.166 293.097 35.8712C292.824 36.5764 292.687 37.1678 292.687 37.6455C293.097 37.5318 293.461 37.3043 293.779 36.9631C294.098 36.5991 294.371 36.3034 294.598 36.0759C294.826 35.8257 295.076 35.5072 295.349 35.1205C295.644 34.7338 295.895 34.3925 296.099 34.0968C296.213 33.9148 296.361 33.6873 296.543 33.4143C296.725 33.1414 296.952 33.0049 297.225 33.0049C297.476 33.0049 297.669 33.1641 297.806 33.4826C297.942 33.7783 298.033 34.1423 298.079 34.5745C298.124 34.984 298.147 35.4162 298.147 35.8712C298.147 36.3261 298.147 36.7015 298.147 36.9972C298.329 36.9517 298.613 36.7811 299 36.4854C299.387 36.1669 299.796 35.8257 300.228 35.4617C300.683 35.0977 301.127 34.7792 301.559 34.5063C302.014 34.2105 302.389 34.0627 302.685 34.0627C302.822 34.0627 302.913 34.1423 302.958 34.3015C303.004 34.438 302.992 34.5745 302.924 34.711C302.901 34.7338 302.731 34.8702 302.412 35.1205C302.116 35.348 301.764 35.6209 301.354 35.9394C300.945 36.2351 300.535 36.5422 300.126 36.8607C299.716 37.1792 299.409 37.4408 299.205 37.6455C299.023 37.8048 298.829 37.9413 298.624 38.055C298.42 38.1688 298.295 38.3735 298.249 38.6692C298.181 39.3062 298.147 39.909 298.147 40.4777C298.147 41.1602 298.09 41.9336 297.976 42.7981C297.885 43.6852 297.749 44.5724 297.567 45.4596C297.385 46.3468 297.169 47.1885 296.918 47.9847C296.691 48.7809 296.441 49.452 296.168 49.9979C295.508 51.2946 294.814 52.2045 294.086 52.7277C293.381 53.2737 292.733 53.5467 292.141 53.5467C291.504 53.5467 290.981 53.3078 290.572 52.8301C290.162 52.3751 289.957 51.8064 289.957 51.124C289.957 50.578 289.98 50.0889 290.026 49.6567C290.071 49.2472 290.151 48.8491 290.264 48.4624C290.378 48.0984 290.515 47.7231 290.674 47.3364C290.833 46.9496 291.038 46.5174 291.288 46.0397C291.971 44.652 292.733 43.3895 293.574 42.2521C294.439 41.1147 295.394 39.9886 296.441 38.874C296.736 38.5555 296.861 38.0323 296.816 37.3043C296.793 36.5536 296.782 35.8257 296.782 35.1205C296.6 35.1887 296.338 35.4731 295.997 35.9735C295.679 36.4513 295.326 36.8607 294.939 37.2019C294.689 37.4522 294.359 37.7593 293.95 38.1233C293.54 38.4872 293.119 38.6692 292.687 38.6692C292.437 38.6692 292.244 38.6123 292.107 38.4986C291.971 38.3849 291.88 38.2484 291.834 38.0891C291.789 37.9299 291.766 37.7593 291.766 37.5773C291.766 37.3953 291.766 37.2361 291.766 37.0996ZM301.672 36.5536C301.672 36.0759 301.785 35.4844 302.013 34.7792C302.263 34.0513 302.581 33.3575 302.968 32.6978C303.378 32.0153 303.844 31.4466 304.367 30.9916C304.913 30.5139 305.482 30.2751 306.073 30.2751C306.483 30.2751 306.835 30.3774 307.131 30.5822C307.427 30.7869 307.654 31.0144 307.814 31.2646C307.973 31.4921 308.041 31.7082 308.018 31.913C308.018 32.1177 307.905 32.2201 307.677 32.2201C307.427 32.2201 307.188 32.0949 306.961 31.8447C306.733 31.5717 306.46 31.4352 306.142 31.4352C305.891 31.4352 305.584 31.5831 305.22 31.8788C304.879 32.1746 304.458 32.7546 303.958 33.6191C303.73 33.9831 303.514 34.4608 303.309 35.0522C303.127 35.6209 303.036 36.1896 303.036 36.7584C303.082 36.7129 303.093 36.7015 303.071 36.7242C303.071 36.747 303.116 36.7015 303.207 36.5877L303.48 36.1783C303.662 35.9053 303.867 35.5527 304.094 35.1205C304.344 34.6655 304.583 34.2333 304.811 33.8238C305.061 33.3916 305.289 33.0162 305.493 32.6978C305.721 32.3793 305.891 32.2201 306.005 32.2201C306.301 32.2201 306.494 32.311 306.585 32.493C306.699 32.6523 306.767 32.8684 306.79 33.1414C306.813 33.4143 306.824 33.7214 306.824 34.0627C306.824 34.4039 306.858 34.7338 306.926 35.0522C307.063 35.6664 307.268 36.1214 307.541 36.4171C307.836 36.6901 308.166 36.8266 308.53 36.8266C309.167 36.8266 309.872 36.4399 310.646 35.6664C310.964 35.3707 311.18 35.1318 311.294 34.9499C311.431 34.7451 311.624 34.5176 311.874 34.2674C312.033 34.0399 312.238 33.9262 312.488 33.9262C312.625 33.9262 312.727 33.9831 312.795 34.0968C312.864 34.1878 312.875 34.347 312.83 34.5745C312.784 34.7792 312.648 35.0409 312.42 35.3593C312.215 35.6778 311.897 36.0418 311.465 36.4513L310.441 37.2702C309.781 37.7252 309.144 37.9526 308.53 37.9526C308.098 37.9526 307.711 37.8503 307.37 37.6455C307.029 37.4408 306.733 37.1906 306.483 36.8948C306.255 36.5764 306.073 36.2238 305.937 35.837C305.8 35.4503 305.732 35.075 305.732 34.711C305.573 34.8247 305.391 35.0864 305.186 35.4958C304.981 35.8825 304.754 36.292 304.504 36.7242C304.276 37.1337 304.037 37.5091 303.787 37.8503C303.537 38.1915 303.287 38.3621 303.036 38.3621C302.399 38.3621 302.013 38.2143 301.876 37.9185C301.74 37.6228 301.672 37.1678 301.672 36.5536ZM335.993 33.2096C336.493 33.0959 336.994 32.9253 337.494 32.6978C337.995 32.4475 338.529 32.3224 339.098 32.3224C339.144 32.3224 339.189 32.3338 339.235 32.3565C339.303 32.3565 339.36 32.3565 339.405 32.3565C340.406 32.4248 341.191 32.7433 341.76 33.312C342.328 33.8807 342.749 34.5859 343.022 35.4276C343.295 36.2693 343.466 37.1792 343.534 38.1574C343.602 39.1356 343.636 40.091 343.636 41.0237C343.773 41.0009 343.944 40.9099 344.148 40.7507C344.376 40.6142 344.603 40.455 344.831 40.273C345.058 40.1137 345.274 39.9545 345.479 39.7953C345.684 39.6133 345.843 39.4768 345.957 39.3858L347.595 38.0209C348.027 37.6569 348.527 37.1792 349.096 36.5877C349.687 35.9963 350.188 35.4844 350.597 35.0522C350.916 34.711 351.121 34.4494 351.212 34.2674C351.325 34.0627 351.61 33.9603 352.065 33.9603H352.269C352.338 34.2333 352.372 34.4266 352.372 34.5404C352.372 34.6314 352.281 34.7906 352.099 35.0181C351.985 35.2001 351.883 35.348 351.792 35.4617C351.701 35.5754 351.576 35.6892 351.416 35.8029C351.303 35.9849 351.212 36.1328 351.143 36.2465C351.075 36.3375 350.95 36.4513 350.768 36.5877C350.586 36.838 350.37 37.0541 350.12 37.2361L347.253 39.8976C347.003 40.1479 346.753 40.364 346.503 40.546C346.252 40.7507 345.991 40.9554 345.718 41.1602C345.104 41.6151 344.637 41.9336 344.319 42.1156C344.023 42.3203 343.807 42.4909 343.671 42.6274C343.557 42.7639 343.477 42.9345 343.432 43.1393C343.409 43.344 343.341 43.6966 343.227 44.1971C342.772 46.6084 342.01 48.906 340.941 51.0898C339.872 53.2964 338.461 55.2755 336.71 57.0272C335.458 58.2783 334.219 59.1769 332.99 59.7228C331.762 60.2916 330.636 60.5759 329.612 60.5759C328.77 60.5759 328.031 60.4053 327.394 60.0641C326.757 59.7228 326.268 59.2565 325.927 58.665C325.608 58.0736 325.46 57.3684 325.483 56.5494C325.506 55.7533 325.756 54.8888 326.234 53.9561C326.689 53.0917 327.258 52.2841 327.94 51.5334C328.622 50.7827 329.339 50.1117 330.09 49.5202C330.954 48.8605 331.796 48.2463 332.615 47.6776C333.457 47.1316 334.287 46.6084 335.106 46.1079C335.947 45.6302 336.801 45.1411 337.665 44.6407C338.529 44.163 339.417 43.6625 340.327 43.1393C340.85 42.8435 341.248 42.6274 341.521 42.4909C341.794 42.3545 341.976 42.127 342.067 41.8085V41.7061C342.181 41.0464 342.237 40.2616 342.237 39.3517C342.237 38.419 342.135 37.5432 341.93 36.7242C341.748 35.8825 341.43 35.166 340.975 34.5745C340.52 33.9831 339.894 33.6873 339.098 33.6873C338.734 33.6873 338.347 33.7556 337.938 33.8921C337.233 34.1195 336.664 34.347 336.232 34.5745C335.8 34.802 335.424 35.0409 335.106 35.2911C334.81 35.5186 334.526 35.7574 334.253 36.0077C334.002 36.2351 333.684 36.474 333.297 36.7242C333.229 36.7697 333.172 36.8152 333.127 36.8607C333.104 36.8835 333.036 36.8948 332.922 36.8948C332.876 36.8948 332.831 36.8948 332.785 36.8948C332.763 36.8721 332.729 36.8607 332.683 36.8607C332.41 36.8152 332.251 36.7129 332.205 36.5536C332.16 36.3716 332.171 36.1783 332.239 35.9735C332.308 35.7688 332.41 35.5641 332.547 35.3593C332.706 35.1546 332.831 34.9954 332.922 34.8816C333.036 34.6996 333.138 34.5404 333.229 34.4039C333.343 34.2674 333.457 34.1195 333.57 33.9603C334.48 32.6409 335.39 31.367 336.3 30.1386C337.21 28.8874 338.074 27.5566 338.893 26.1462C339.166 25.6685 339.485 25.0202 339.849 24.2013C340.236 23.3823 340.588 22.4951 340.907 21.5397C341.225 20.5843 341.464 19.6288 341.623 18.6734C341.805 17.6952 341.817 16.8194 341.657 16.046C341.498 15.227 341.168 14.8175 340.668 14.8175C340.236 14.8175 339.746 15.045 339.2 15.5C338.655 15.955 338.12 16.4896 337.597 17.1038C337.074 17.6952 336.584 18.298 336.129 18.9123C335.697 19.5265 335.379 19.9928 335.174 20.3113C334.355 21.6307 333.57 23.0638 332.82 24.6107C332.092 26.1576 331.421 27.75 330.806 29.3879C330.192 31.003 329.623 32.6409 329.1 34.3015C328.6 35.9394 328.156 37.5091 327.769 39.0104C327.542 39.8976 327.314 40.7507 327.087 41.5696C326.859 42.4113 326.655 43.2985 326.473 44.2312L325.824 48.5648C325.756 48.8605 325.688 49.0539 325.62 49.1448C325.551 49.2358 325.392 49.3382 325.142 49.452C324.71 49.361 324.482 49.1903 324.46 48.9401C324.437 48.7126 324.448 48.3714 324.494 47.9164L325.142 41.5014C325.392 38.5896 325.711 35.7461 326.097 32.9708C326.507 30.1727 326.859 27.3405 327.155 24.4742C327.269 23.769 327.36 23.0525 327.428 22.3245C327.519 21.5966 327.565 20.88 327.565 20.1748C327.565 19.8108 327.576 19.4013 327.599 18.9464C327.622 18.4687 327.61 18.0706 327.565 17.7521C327.496 17.3654 327.428 17.0355 327.36 16.7625C327.314 16.4668 327.246 16.1597 327.155 15.8412C326.769 15.8867 326.45 16.0915 326.2 16.4554C325.95 16.8194 325.733 17.1606 325.551 17.4791C324.596 18.9123 323.777 20.516 323.095 22.2904C322.412 24.042 321.946 25.7936 321.696 27.5453C321.605 28.1595 321.548 28.8647 321.525 29.6609C321.502 30.4571 321.582 31.1281 321.764 31.6741C321.9 32.0153 322.06 32.2201 322.242 32.2883C322.424 32.3565 322.594 32.402 322.753 32.4248C322.935 32.4475 323.061 32.5044 323.129 32.5954C323.22 32.6636 323.231 32.8684 323.163 33.2096C322.867 33.2779 322.583 33.312 322.31 33.312C321.946 33.312 321.65 33.2324 321.423 33.0731C321.218 32.8911 321.025 32.6295 320.843 32.2883C320.547 31.6286 320.399 30.912 320.399 30.1386C320.399 29.3651 320.444 28.6144 320.535 27.8865C320.649 26.7263 320.865 25.6003 321.184 24.5084C321.525 23.4164 321.889 22.3359 322.276 21.2667L323.333 18.9464C323.447 18.6961 323.641 18.3208 323.914 17.8203C324.187 17.2971 324.494 16.7853 324.835 16.2848C325.199 15.7844 325.574 15.3521 325.961 14.9882C326.37 14.6014 326.78 14.4081 327.189 14.4081C327.576 14.4081 327.917 14.6014 328.213 14.9882C328.509 15.3521 328.713 15.773 328.827 16.2507C328.964 16.7057 329.055 17.1948 329.1 17.718C329.146 18.2184 329.157 18.7303 329.134 19.2535C329.134 19.7767 329.134 20.2658 329.134 20.7208C329.134 21.3122 329.1 21.8354 329.032 22.2904C328.986 22.7454 328.941 23.2458 328.895 23.7918C328.85 24.8155 328.759 25.8278 328.622 26.8287C328.486 27.8069 328.338 28.8078 328.179 29.8315L327.667 34.2333C327.622 34.529 327.576 34.7906 327.531 35.0181C327.485 35.2228 327.462 35.4617 327.462 35.7347C327.622 35.5299 327.735 35.2797 327.804 34.984C327.872 34.6883 327.94 34.4266 328.008 34.1992L328.486 32.6636C328.645 32.1404 328.816 31.64 328.998 31.1623C329.18 30.6618 329.362 30.15 329.544 29.6267C329.976 28.3756 330.488 27.0448 331.079 25.6344C331.694 24.224 332.387 22.8364 333.161 21.4714C333.934 20.1065 334.776 18.8213 335.686 17.6156C336.619 16.3872 337.608 15.3408 338.655 14.4763C339.382 13.8394 340.11 13.5209 340.838 13.5209C341.384 13.5209 341.862 13.7484 342.272 14.2033C342.681 14.6356 342.965 15.3066 343.125 16.2166C343.284 17.172 343.261 18.1957 343.056 19.2876C342.874 20.3568 342.579 21.426 342.169 22.4951C341.782 23.5643 341.327 24.6107 340.804 25.6344C340.281 26.6581 339.769 27.5794 339.269 28.3983C339.087 28.6713 338.825 29.0467 338.484 29.5244C338.165 29.9793 337.836 30.4571 337.494 30.9575C337.153 31.4352 336.835 31.8902 336.539 32.3224C336.266 32.7319 336.084 33.0276 335.993 33.2096ZM329.544 59.4157C330.044 59.4157 330.556 59.3247 331.079 59.1428C331.603 58.9835 332.035 58.8129 332.376 58.6309C333.331 58.1532 334.196 57.5617 334.969 56.8565C335.765 56.1741 336.471 55.412 337.085 54.5703C337.722 53.7514 338.291 52.8756 338.791 51.9429C339.314 51.033 339.792 50.1003 340.224 49.1448C340.338 48.8946 340.474 48.5193 340.634 48.0188C340.816 47.5411 340.986 47.0292 341.145 46.4833C341.327 45.9601 341.475 45.4482 341.589 44.9478C341.703 44.4701 341.76 44.0947 341.76 43.8217L333.946 48.2918L330.943 50.4756C330.556 50.7941 330.101 51.2036 329.578 51.704C329.055 52.2045 328.634 52.6595 328.315 53.0689C327.633 53.9561 327.178 54.7864 326.95 55.5599C326.723 56.3333 326.678 57.0044 326.814 57.5731C326.973 58.1418 327.292 58.5854 327.769 58.9039C328.247 59.2451 328.839 59.4157 329.544 59.4157ZM350.923 36.5536C350.923 36.0759 351.036 35.4844 351.264 34.7792C351.514 34.0513 351.833 33.3575 352.219 32.6978C352.629 32.0153 353.095 31.4466 353.618 30.9916C354.164 30.5139 354.733 30.2751 355.324 30.2751C355.734 30.2751 356.087 30.3774 356.382 30.5822C356.678 30.7869 356.905 31.0144 357.065 31.2646C357.224 31.4921 357.292 31.7082 357.269 31.913C357.269 32.1177 357.156 32.2201 356.928 32.2201C356.678 32.2201 356.439 32.0949 356.212 31.8447C355.984 31.5717 355.711 31.4352 355.393 31.4352C355.142 31.4352 354.835 31.5831 354.471 31.8788C354.13 32.1746 353.709 32.7546 353.209 33.6191C352.981 33.9831 352.765 34.4608 352.561 35.0522C352.379 35.6209 352.288 36.1896 352.288 36.7584C352.333 36.7129 352.344 36.7015 352.322 36.7242C352.322 36.747 352.367 36.7015 352.458 36.5877L352.731 36.1783C352.913 35.9053 353.118 35.5527 353.345 35.1205C353.596 34.6655 353.834 34.2333 354.062 33.8238C354.312 33.3916 354.54 33.0162 354.744 32.6978C354.972 32.3793 355.142 32.2201 355.256 32.2201C355.552 32.2201 355.745 32.311 355.836 32.493C355.95 32.6523 356.018 32.8684 356.041 33.1414C356.064 33.4143 356.075 33.7214 356.075 34.0627C356.075 34.4039 356.109 34.7338 356.178 35.0522C356.314 35.6664 356.519 36.1214 356.792 36.4171C357.087 36.6901 357.417 36.8266 357.781 36.8266C358.418 36.8266 359.123 36.4399 359.897 35.6664C360.215 35.3707 360.431 35.1318 360.545 34.9499C360.682 34.7451 360.875 34.5176 361.125 34.2674C361.285 34.0399 361.489 33.9262 361.74 33.9262C361.876 33.9262 361.978 33.9831 362.047 34.0968C362.115 34.1878 362.126 34.347 362.081 34.5745C362.035 34.7792 361.899 35.0409 361.671 35.3593C361.467 35.6778 361.148 36.0418 360.716 36.4513L359.692 37.2702C359.032 37.7252 358.396 37.9526 357.781 37.9526C357.349 37.9526 356.962 37.8503 356.621 37.6455C356.28 37.4408 355.984 37.1906 355.734 36.8948C355.506 36.5764 355.324 36.2238 355.188 35.837C355.051 35.4503 354.983 35.075 354.983 34.711C354.824 34.8247 354.642 35.0864 354.437 35.4958C354.233 35.8825 354.005 36.292 353.755 36.7242C353.527 37.1337 353.288 37.5091 353.038 37.8503C352.788 38.1915 352.538 38.3621 352.288 38.3621C351.651 38.3621 351.264 38.2143 351.127 37.9185C350.991 37.6228 350.923 37.1678 350.923 36.5536ZM368.292 32.2883C368.543 32.2428 368.838 32.0381 369.18 31.6741C369.544 31.2874 369.885 30.9575 370.203 30.6845C370.362 30.5026 370.499 30.3547 370.613 30.2409C370.749 30.1045 370.908 29.9793 371.09 29.8656C371.318 29.7519 371.523 29.695 371.705 29.695C371.932 29.695 372.125 29.786 372.285 29.968C372.444 30.15 372.524 30.4912 372.524 30.9916C372.546 31.4921 372.535 32.0494 372.489 32.6636C372.467 33.2779 372.421 33.9148 372.353 34.5745C372.307 35.2115 372.285 35.7688 372.285 36.2465C372.285 37.2929 372.364 38.0323 372.524 38.4645C372.706 38.874 372.944 39.0787 373.24 39.0787C373.49 39.0787 373.763 38.9422 374.059 38.6692C374.378 38.3962 374.696 38.055 375.015 37.6455C375.333 37.2361 375.64 36.8039 375.936 36.3489C376.232 35.8939 376.493 35.4844 376.721 35.1205C376.88 34.8702 377.028 34.62 377.164 34.3698C377.301 34.1195 377.562 33.9944 377.949 33.9944C378.017 33.9944 378.086 34.0399 378.154 34.1309C378.245 34.2219 378.29 34.3243 378.29 34.438C378.29 34.529 378.245 34.6655 378.154 34.8475C378.086 35.0295 377.995 35.2115 377.881 35.3935C377.767 35.5754 377.653 35.7574 377.54 35.9394C377.449 36.0987 377.369 36.2238 377.301 36.3148C377.187 36.474 377.096 36.6105 377.028 36.7242C376.982 36.838 376.903 36.9858 376.789 37.1678C376.675 37.3043 376.573 37.4294 376.482 37.5432C376.414 37.6342 376.323 37.7707 376.209 37.9526C375.754 38.6123 375.231 39.1811 374.639 39.6588C374.048 40.1137 373.468 40.3412 372.899 40.3412C372.58 40.3412 372.273 40.2389 371.978 40.0341C371.682 39.8294 371.443 39.4768 371.261 38.9763C371.011 38.3621 370.863 37.7024 370.817 36.9972C370.795 36.292 370.806 35.5982 370.852 34.9157C370.92 34.2333 370.999 33.585 371.09 32.9708C371.181 32.3338 371.227 31.7651 371.227 31.2646C371.068 31.3784 370.863 31.5604 370.613 31.8106C370.385 32.0608 370.146 32.311 369.896 32.5613C369.646 32.8115 369.384 33.039 369.111 33.2437C368.861 33.4257 368.622 33.5167 368.395 33.5167C367.872 33.5167 367.508 33.2779 367.303 32.8001C367.121 32.2997 367.03 31.7878 367.03 31.2646C366.643 31.5149 366.268 31.9698 365.904 32.6295C365.563 33.2665 365.21 33.9262 364.846 34.6086C364.505 35.2683 364.152 35.8712 363.788 36.4171C363.447 36.9403 363.083 37.2133 362.696 37.2361H362.628C362.241 37.2361 361.946 37.0655 361.741 36.7242C361.536 36.3603 361.411 35.9167 361.366 35.3935C361.343 34.8702 361.366 34.3015 361.434 33.6873C361.525 33.0731 361.65 32.5044 361.809 31.9812C361.968 31.458 362.15 31.0258 362.355 30.6845C362.56 30.3206 362.765 30.1386 362.969 30.1386C363.401 30.1386 363.652 30.2409 363.72 30.4457C363.788 30.6277 363.765 30.9234 363.652 31.3329C363.561 31.7423 363.436 32.2656 363.276 32.9025C363.14 33.5167 363.072 34.256 363.072 35.1205C363.094 35.075 363.106 35.0522 363.106 35.0522C363.129 35.0522 363.14 35.0522 363.14 35.0522L363.242 34.9499L364.846 32.2542C364.937 32.0949 365.062 31.8788 365.221 31.6058C365.381 31.3329 365.563 31.0713 365.767 30.821C365.972 30.5708 366.177 30.3547 366.382 30.1727C366.609 29.968 366.825 29.8656 367.03 29.8656C367.553 29.8656 367.894 30.1386 368.054 30.6845C368.213 31.2078 368.292 31.7423 368.292 32.2883ZM379.58 40.1365C379.125 40.1365 378.716 39.9886 378.352 39.6929C378.01 39.3972 377.749 39.0901 377.567 38.7716C377.157 37.9981 376.918 37.0882 376.85 36.0418C376.805 34.9726 376.873 34.0058 377.055 33.1414C377.078 32.9594 377.112 32.7433 377.157 32.493C377.226 32.2428 377.305 32.0039 377.396 31.7765C377.487 31.5262 377.601 31.3215 377.737 31.1623C377.874 30.9803 378.022 30.8893 378.181 30.8893C378.568 30.8893 378.795 30.9916 378.863 31.1964C378.932 31.3784 378.932 31.6741 378.863 32.0836C378.795 32.493 378.693 33.0162 378.556 33.6532C378.443 34.2902 378.386 35.0409 378.386 35.9053C378.386 36.1555 378.408 36.4626 378.454 36.8266C378.499 37.1678 378.568 37.4977 378.659 37.8162C378.772 38.1346 378.909 38.4076 379.068 38.6351C379.25 38.8398 379.455 38.9422 379.682 38.9422C379.955 38.9422 380.262 38.8512 380.604 38.6692C380.945 38.4645 381.275 38.2256 381.593 37.9526C381.912 37.6797 382.196 37.4067 382.446 37.1337C382.719 36.8607 382.924 36.6446 383.061 36.4854C383.106 36.4399 383.231 36.2806 383.436 36.0077C383.641 35.7347 383.879 35.439 384.152 35.1205C384.425 34.802 384.698 34.5176 384.971 34.2674C385.267 34.0172 385.495 33.8921 385.654 33.8921C385.813 33.8921 385.893 34.0286 385.893 34.3015C385.893 34.4608 385.779 34.711 385.551 35.0522C385.347 35.3707 385.096 35.7119 384.801 36.0759C384.505 36.4399 384.209 36.7811 383.914 37.0996C383.641 37.4181 383.436 37.6455 383.299 37.782C383.095 37.9868 382.856 38.2256 382.583 38.4986C382.333 38.7716 382.048 39.0332 381.73 39.2834C381.411 39.5109 381.07 39.7156 380.706 39.8976C380.365 40.0569 379.989 40.1365 379.58 40.1365ZM378.488 26.5898C378.488 26.2031 378.59 25.8733 378.795 25.6003C379 25.3045 379.227 25.1567 379.478 25.1567C379.751 25.1567 379.978 25.3273 380.16 25.6685C380.479 26.3055 380.513 26.8059 380.262 27.1699C380.035 27.5111 379.751 27.6818 379.409 27.6818C379.159 27.6818 378.943 27.6021 378.761 27.4429C378.579 27.2609 378.488 26.9766 378.488 26.5898ZM385.706 37.5091C385.706 37.7138 385.752 37.8162 385.843 37.8162C386.025 37.8162 386.298 37.4636 386.662 36.7584C387.026 36.0532 387.39 35.2683 387.754 34.4039C388.118 33.5395 388.436 32.7319 388.709 31.9812C388.982 31.2078 389.119 30.7528 389.119 30.6163C388.732 30.6618 388.425 30.7869 388.197 30.9916C387.993 31.1736 387.799 31.3897 387.617 31.64C387.026 32.3679 386.559 33.2665 386.218 34.3357C385.877 35.3821 385.706 36.4399 385.706 37.5091ZM389.596 29.695C389.596 29.4448 389.63 29.2286 389.699 29.0467C389.79 28.8647 389.869 28.6599 389.938 28.4325L390.654 24.5766C390.7 24.3946 390.756 24.133 390.825 23.7918C390.893 23.4278 390.984 23.0752 391.098 22.734C391.211 22.37 391.337 22.0515 391.473 21.7786C391.632 21.4828 391.814 21.3122 392.019 21.2667C392.065 21.2667 392.099 21.2667 392.121 21.2667C392.144 21.244 392.167 21.2326 392.19 21.2326C392.508 21.2326 392.679 21.4146 392.701 21.7786C392.747 22.1425 392.724 22.5634 392.633 23.0411C392.542 23.5188 392.417 23.9965 392.258 24.4742C392.121 24.9292 392.03 25.2591 391.985 25.4638C391.575 26.8514 391.28 28.2732 391.098 29.7291C390.916 31.1623 390.802 32.6068 390.756 34.0627C390.711 35.5186 390.7 36.9745 390.722 38.4304C390.768 39.8863 390.802 41.3308 390.825 42.7639C390.825 43.3099 390.859 43.7762 390.927 44.163C391.018 44.5497 391.075 44.8568 391.098 45.0843C391.143 45.3117 391.132 45.471 391.064 45.562C390.995 45.6757 390.802 45.7326 390.484 45.7326C390.233 45.7326 390.029 45.4482 389.869 44.8795C389.733 44.3108 389.63 43.5829 389.562 42.6957C389.494 41.8312 389.46 40.8758 389.46 39.8294C389.46 38.783 389.471 37.782 389.494 36.8266C389.517 35.8712 389.539 35.0409 389.562 34.3357C389.585 33.6077 389.596 33.13 389.596 32.9025C389.483 33.0162 389.414 33.0845 389.392 33.1072C389.392 33.1072 389.369 33.1869 389.323 33.3461L388.129 36.2465C388.015 36.5195 387.879 36.8152 387.72 37.1337C387.583 37.4522 387.412 37.7479 387.208 38.0209C387.026 38.2939 386.81 38.5327 386.559 38.7375C386.309 38.9195 386.025 39.0104 385.706 39.0104C385.229 39.0104 384.899 38.783 384.717 38.328C384.558 37.8503 384.512 37.2702 384.58 36.5877C384.649 35.8825 384.808 35.1205 385.058 34.3015C385.331 33.4826 385.661 32.7319 386.048 32.0494C386.457 31.3442 386.901 30.7642 387.378 30.3092C387.879 29.8315 388.391 29.5926 388.914 29.5926C389.096 29.5926 389.187 29.6154 389.187 29.6609C389.21 29.6836 389.346 29.695 389.596 29.695ZM392.177 35.837C392.177 35.4731 392.211 35.0636 392.279 34.6086C392.37 34.1537 392.484 33.7101 392.621 33.2779C392.78 32.8229 392.951 32.3907 393.133 31.9812C393.337 31.5717 393.542 31.2305 393.747 30.9575C393.997 30.6845 394.247 30.548 394.497 30.548C394.702 30.548 394.907 30.6049 395.112 30.7187C395.134 30.8324 395.157 30.912 395.18 30.9575C395.225 31.003 395.248 31.1054 395.248 31.2646C395.248 31.2874 395.134 31.5149 394.907 31.9471C394.702 32.3565 394.486 32.8684 394.259 33.4826C394.031 34.074 393.838 34.711 393.678 35.3935C393.542 36.0759 393.542 36.7015 393.678 37.2702C393.951 37.1792 394.179 37.0086 394.361 36.7584C394.566 36.4854 394.759 36.2351 394.941 36.0077L396.988 33.0049C397.216 32.6864 397.409 32.4134 397.568 32.1859C397.728 31.9357 397.967 31.8106 398.285 31.8106C398.513 31.8106 398.66 31.9357 398.729 32.1859C398.82 32.4134 398.865 32.6978 398.865 33.039C398.888 33.3802 398.888 33.7328 398.865 34.0968C398.842 34.438 398.842 34.7224 398.865 34.9499C398.979 35.7688 399.149 36.3489 399.377 36.6901C399.627 37.0086 399.912 37.1678 400.23 37.1678C400.617 37.1678 401.026 37.0086 401.458 36.6901C401.913 36.3489 402.346 35.9849 402.755 35.5982C403.165 35.1887 403.54 34.8247 403.881 34.5063C404.222 34.165 404.473 33.9944 404.632 33.9944C404.768 33.9944 404.893 34.0286 405.007 34.0968C405.121 34.1423 405.178 34.256 405.178 34.438C405.178 34.5745 405.087 34.7565 404.905 34.984C404.746 35.1887 404.552 35.4048 404.325 35.6323C404.12 35.8598 403.904 36.0759 403.676 36.2806C403.472 36.4626 403.312 36.5991 403.199 36.6901C402.744 37.1223 402.243 37.4977 401.697 37.8162C401.174 38.1119 400.651 38.2597 400.128 38.2597C399.559 38.2597 399.115 38.1119 398.797 37.8162C398.478 37.4977 398.24 37.111 398.08 36.656C397.921 36.1783 397.819 35.6892 397.773 35.1887C397.75 34.6655 397.739 34.1992 397.739 33.7897C397.603 33.8807 397.432 34.0854 397.227 34.4039C397.045 34.6996 396.897 34.9385 396.784 35.1205C396.647 35.348 396.454 35.6664 396.204 36.0759C395.953 36.4854 395.669 36.8835 395.35 37.2702C395.055 37.6342 394.748 37.964 394.429 38.2597C394.133 38.5327 393.849 38.6692 393.576 38.6692C393.189 38.6692 392.894 38.5782 392.689 38.3962C392.507 38.2143 392.37 37.9868 392.279 37.7138C392.211 37.4181 392.177 37.111 392.177 36.7925C392.177 36.4513 392.177 36.1328 392.177 35.837ZM404.15 39.8635C403.991 39.8635 403.877 39.7725 403.809 39.5905C403.741 39.4085 403.695 39.2152 403.673 39.0104C403.673 38.783 403.684 38.5669 403.707 38.3621C403.73 38.1574 403.741 38.0209 403.741 37.9526C403.718 37.5432 403.707 37.1337 403.707 36.7242C403.73 36.292 403.73 35.8598 403.707 35.4276C403.707 35.2683 403.707 34.9612 403.707 34.5063C403.73 34.0513 403.764 33.585 403.809 33.1072C403.877 32.6295 403.968 32.2087 404.082 31.8447C404.196 31.458 404.344 31.2646 404.526 31.2646C404.981 31.2646 405.208 31.4125 405.208 31.7082C405.231 32.0039 405.22 32.3907 405.174 32.8684C405.151 33.0504 405.14 33.2324 405.14 33.4143C405.14 33.5963 405.14 33.7783 405.14 33.9603C405.14 34.2105 405.129 34.3698 405.106 34.438C405.083 34.4835 405.072 34.62 405.072 34.8475C405.322 34.6655 405.549 34.4608 405.754 34.2333C405.959 33.9831 406.323 33.8579 406.846 33.8579C407.005 33.8579 407.21 33.8579 407.46 33.8579C407.733 33.8352 408.018 33.8238 408.313 33.8238C408.814 33.8238 409.28 33.8579 409.712 33.9262C410.145 33.9717 410.361 34.1082 410.361 34.3357C410.361 34.5859 410.236 34.7451 409.985 34.8134C409.758 34.8589 409.474 34.8816 409.132 34.8816C408.905 34.8816 408.666 34.8816 408.416 34.8816C408.188 34.8589 407.983 34.8475 407.801 34.8475C407.483 34.8475 407.221 34.8589 407.017 34.8816C406.812 34.8816 406.641 34.9157 406.505 34.984C406.368 35.0295 406.243 35.1091 406.129 35.2228C406.038 35.3366 405.925 35.5072 405.788 35.7347C405.606 36.0304 405.447 36.3489 405.311 36.6901C405.174 37.0313 405.072 37.4067 405.003 37.8162C404.958 38.0436 404.935 38.2825 404.935 38.5327C404.935 38.7602 404.924 38.9763 404.901 39.1811C404.878 39.3858 404.81 39.5564 404.696 39.6929C404.605 39.8066 404.423 39.8635 404.15 39.8635ZM410.944 39.2152C411.285 39.1242 411.592 38.8171 411.865 38.2939C412.138 37.7707 412.331 37.1906 412.445 36.5536C412.559 35.9167 412.582 35.3138 412.513 34.7451C412.468 34.1764 412.297 33.7897 412.002 33.585C411.933 33.8352 411.808 34.1992 411.626 34.6769C411.444 35.1318 411.262 35.6323 411.08 36.1783C410.921 36.7242 410.807 37.2702 410.739 37.8162C410.693 38.3621 410.762 38.8285 410.944 39.2152ZM409.238 38.055C409.238 37.6683 409.329 37.0768 409.511 36.2806C409.715 35.4844 409.977 34.6883 410.295 33.8921C410.637 33.0959 411.012 32.402 411.421 31.8106C411.831 31.1964 412.24 30.8893 412.65 30.8893C412.877 30.8893 413.037 30.9916 413.128 31.1964C413.219 31.4011 413.241 31.5717 413.196 31.7082C413.15 31.822 413.059 31.9357 412.923 32.0494C412.809 32.1632 412.707 32.2883 412.616 32.4248C412.661 32.584 412.775 32.7546 412.957 32.9366C413.139 33.1186 413.31 33.3802 413.469 33.7214C413.651 34.0627 413.776 34.5063 413.844 35.0522C413.912 35.5754 413.855 36.2806 413.674 37.1678C413.423 38.3507 413.025 39.2379 412.479 39.8294C411.933 40.4208 411.399 40.7166 410.875 40.7166C410.42 40.7166 410.034 40.4891 409.715 40.0341C409.397 39.6019 409.238 38.9422 409.238 38.055Z" fill="white"/>
</svg>
