<svg width="556" height="254" viewBox="0 0 556 254" fill="none" xmlns="http://www.w3.org/2000/svg">
<g clip-path="url(#clip0_928_262)">
<path d="M-0.460938 154.617C-0.460938 143.709 1.89916 134.006 6.61916 125.51C11.3392 116.909 17.8948 110.249 26.286 105.529C34.7821 100.704 44.3793 98.2912 55.0783 98.2912C68.1893 98.2912 79.4123 101.753 88.7473 108.676C98.0833 115.598 104.324 125.038 107.47 136.996H77.8913C75.6893 132.381 72.5423 128.867 68.4513 126.454C64.4663 124.042 59.9033 122.836 54.7633 122.836C46.4773 122.836 39.7643 125.72 34.6247 131.489C29.4851 137.258 26.9153 144.967 26.9153 154.617C26.9153 164.267 29.4851 171.977 34.6247 177.745C39.7643 183.514 46.4773 186.399 54.7633 186.399C59.9033 186.399 64.4663 185.193 68.4513 182.78C72.5423 180.368 75.6893 176.854 77.8913 172.239H107.47C104.324 184.196 98.0833 193.636 88.7473 200.559C79.4123 207.377 68.1893 210.786 55.0783 210.786C44.3793 210.786 34.7821 208.426 26.286 203.706C17.8948 198.881 11.3392 192.22 6.61916 183.724C1.89916 175.228 -0.460938 165.526 -0.460938 154.617ZM176.181 211.1C165.797 211.1 156.252 208.688 147.546 203.863C138.945 199.038 132.075 192.325 126.935 183.724C121.901 175.018 119.383 165.264 119.383 154.46C119.383 143.656 121.901 133.954 126.935 125.353C132.075 116.752 138.945 110.039 147.546 105.214C156.252 100.389 165.797 97.9766 176.181 97.9766C186.565 97.9766 196.058 100.389 204.659 105.214C213.365 110.039 220.182 116.752 225.112 125.353C230.147 133.954 232.664 143.656 232.664 154.46C232.664 165.264 230.147 175.018 225.112 183.724C220.077 192.325 213.26 199.038 204.659 203.863C196.058 208.688 186.565 211.1 176.181 211.1ZM176.181 186.556C184.992 186.556 192.02 183.619 197.264 177.745C202.613 171.872 205.288 164.11 205.288 154.46C205.288 144.705 202.613 136.943 197.264 131.174C192.02 125.301 184.992 122.364 176.181 122.364C167.266 122.364 160.133 125.248 154.784 131.017C149.539 136.786 146.917 144.6 146.917 154.46C146.917 164.215 149.539 172.029 154.784 177.903C160.133 183.672 167.266 186.556 176.181 186.556ZM274.064 99.5499V165.631C274.064 172.239 275.69 177.326 278.941 180.892C282.193 184.458 286.966 186.241 293.259 186.241C299.552 186.241 304.377 184.458 307.734 180.892C311.09 177.326 312.768 172.239 312.768 165.631V99.5499H339.673V165.473C339.673 175.333 337.575 183.672 333.379 190.49C329.184 197.307 323.52 202.447 316.387 205.908C309.359 209.37 301.493 211.1 292.787 211.1C284.081 211.1 276.267 209.422 269.344 206.066C262.526 202.604 257.124 197.465 253.139 190.647C249.153 183.724 247.16 175.333 247.16 165.473V99.5499H274.064ZM556.327 99.5499V121.105H527.063V209.999H500.159V121.105H470.894V99.5499H556.327Z" fill="white"/>
<path d="M458.103 211.828H431.199L386.201 143.702V211.828H359.297V101.379H386.201L431.199 169.82V101.379H458.103V211.828Z" fill="url(#paint0_linear_928_262)"/>
<path d="M471.391 126.664H346.001V149.304H471.391V126.664Z" fill="#FFDF2B"/>
<path d="M471.391 163.23H346.001V185.87H471.391V163.23Z" fill="#FFDF2B"/>
<path d="M48.2074 24.6317V65.9992H45.4974V30.2919L29.6009 65.9992H27.4331L11.4762 30.2919V65.9992H8.7666V24.6317H11.6569L28.517 62.4465L45.3774 24.6317H48.2074ZM82.1274 55.1606H62.0754L58.0414 65.9992H55.0904L70.6254 24.6919H73.6364L89.1114 65.9992H86.1614L82.1274 55.1606ZM81.2834 52.8724L72.1314 28.2446L62.9184 52.8724H81.2834ZM118.072 65.9992L98.6234 46.0681V65.9992H95.9134V23.7285H98.6234V43.8402L118.072 23.7285H121.564L100.971 44.9241L121.625 65.9992H118.072ZM130.612 26.0166V43.6595H147.472V45.9477H130.612V63.711H149.278V65.9992H127.902V23.7285H149.278V26.0166H130.612ZM177.184 26.0166V43.6595H194.044V45.9477H177.184V63.711H195.85V65.9992H174.474V23.7285H195.85V26.0166H177.184ZM235.966 23.7285L219.829 65.9992H216.818L200.74 23.7285H203.691L218.323 62.8078L233.076 23.7285H235.966ZM245.219 26.0166V43.6595H262.08V45.9477H245.219V63.711H263.886V65.9992H242.51V23.7285H263.886V26.0166H245.219ZM294.909 65.9992L284.071 47.995H283.83H274.798V65.9992H272.088V23.7285H283.709C288.406 23.7285 291.919 24.8324 294.247 27.0403C296.615 29.2482 297.8 32.1786 297.8 35.8316C297.8 39.0832 296.876 41.7728 295.03 43.9004C293.223 45.9878 290.574 47.2724 287.081 47.7541L298.161 65.9992H294.909ZM274.798 45.7068H283.83C287.563 45.7068 290.353 44.8036 292.2 42.9972C294.046 41.1907 294.969 38.8022 294.969 35.8316C294.969 29.3686 291.216 26.1371 283.709 26.1371H274.798V45.7068ZM331.914 23.7285L318.607 48.8982V65.9992H315.897V48.8982L302.469 23.7285H305.54L317.222 46.3692L328.843 23.7285H331.914ZM358.122 26.0166V43.6595H374.982V45.9477H358.122V63.711H376.788V65.9992H355.412V23.7285H376.788V26.0166H358.122ZM406.788 23.7285V26.0166H387.7V43.6595H404.38V45.9477H387.7V65.9992H384.99V23.7285H406.788ZM435.778 23.7285V26.0166H416.69V43.6595H433.37V45.9477H416.69V65.9992H413.98V23.7285H435.778ZM461.818 66.4809C457.924 66.4809 454.411 65.5777 451.28 63.7713C448.149 61.9247 445.7 59.3555 443.934 56.0638C442.168 52.772 441.285 49.0588 441.285 44.9241C441.285 40.7492 442.168 37.0359 443.934 33.7843C445.7 30.4926 448.149 27.9435 451.28 26.1371C454.411 24.2905 457.924 23.3672 461.818 23.3672C465.712 23.3672 469.224 24.2905 472.355 26.1371C475.486 27.9435 477.935 30.4926 479.702 33.7843C481.468 37.0359 482.351 40.7492 482.351 44.9241C482.351 49.0588 481.468 52.772 479.702 56.0638C477.935 59.3555 475.486 61.9247 472.355 63.7713C469.224 65.5777 465.712 66.4809 461.818 66.4809ZM461.818 64.0723C465.15 64.0723 468.16 63.2895 470.85 61.724C473.54 60.1584 475.647 57.9304 477.173 55.0401C478.738 52.1498 479.521 48.7778 479.521 44.9241C479.521 41.0302 478.738 37.6381 477.173 34.7478C475.647 31.8575 473.54 29.6295 470.85 28.0639C468.16 26.4984 465.15 25.7156 461.818 25.7156C458.486 25.7156 455.475 26.4984 452.786 28.0639C450.096 29.6295 447.968 31.8575 446.403 34.7478C444.837 37.6381 444.054 41.0302 444.054 44.9241C444.054 48.7778 444.837 52.1498 446.403 55.0401C447.968 57.9304 450.096 60.1584 452.786 61.724C455.475 63.2895 458.486 64.0723 461.818 64.0723ZM513.364 65.9992L502.525 47.995H502.284H493.252V65.9992H490.543V23.7285H502.164C506.861 23.7285 510.373 24.8324 512.702 27.0403C515.07 29.2482 516.254 32.1786 516.254 35.8316C516.254 39.0832 515.331 41.7728 513.484 43.9004C511.678 45.9878 509.028 47.2724 505.536 47.7541L516.615 65.9992H513.364ZM493.252 45.7068H502.284C506.018 45.7068 508.808 44.8036 510.654 42.9972C512.501 41.1907 513.424 38.8022 513.424 35.8316C513.424 29.3686 509.671 26.1371 502.164 26.1371H493.252V45.7068ZM547.659 23.7285V26.0166H535.616V65.9992H532.906V26.0166H520.863V23.7285H547.659Z" fill="white"/>
</g>
<defs>
<linearGradient id="paint0_linear_928_262" x1="403.611" y1="92.054" x2="451.811" y2="216.303" gradientUnits="userSpaceOnUse">
<stop stop-color="#FFDF2B"/>
<stop offset="1" stop-color="#99861A"/>
</linearGradient>
<clipPath id="clip0_928_262">
<rect width="556" height="254" fill="white"/>
</clipPath>
</defs>
</svg>
