<svg width="559" height="76" viewBox="0 0 559 76" fill="none" xmlns="http://www.w3.org/2000/svg">
<path d="M19.4198 34.3013C19.4198 35.8044 18.9015 37.0571 17.8648 38.0592C16.8454 39.044 15.2818 39.5364 13.1739 39.5364H9.70111V47.0781H7.34271V29.0143H13.1739C15.2127 29.0143 16.759 29.5067 17.813 30.4916C18.8842 31.4764 19.4198 32.7463 19.4198 34.3013ZM13.1739 37.5927C14.487 37.5927 15.4546 37.3076 16.0766 36.7374C16.6986 36.1673 17.0096 35.3552 17.0096 34.3013C17.0096 32.0725 15.731 30.9581 13.1739 30.9581H9.70111V37.5927H13.1739ZM24.7094 35.1825C25.1241 34.3704 25.7115 33.7398 26.4717 33.2905C27.2492 32.8413 28.1908 32.6167 29.2966 32.6167V35.0529H28.6746C26.0311 35.0529 24.7094 36.4869 24.7094 39.355V47.0781H22.351V32.8759H24.7094V35.1825ZM38.2131 47.3114C36.8827 47.3114 35.6733 47.009 34.5848 46.4043C33.5136 45.7996 32.667 44.9443 32.045 43.8386C31.4403 42.7155 31.1379 41.4197 31.1379 39.9511C31.1379 38.4998 31.4489 37.2212 32.0709 36.1154C32.7102 34.9924 33.574 34.1372 34.6625 33.5497C35.751 32.945 36.9691 32.6426 38.3168 32.6426C39.6644 32.6426 40.8825 32.945 41.971 33.5497C43.0595 34.1372 43.9147 34.9838 44.5367 36.0895C45.176 37.1953 45.4956 38.4825 45.4956 39.9511C45.4956 41.4197 45.1674 42.7155 44.5108 43.8386C43.8715 44.9443 42.999 45.7996 41.8932 46.4043C40.7875 47.009 39.5608 47.3114 38.2131 47.3114ZM38.2131 45.2381C39.0597 45.2381 39.8545 45.0394 40.5974 44.642C41.3404 44.2446 41.9364 43.6485 42.3857 42.8537C42.8522 42.059 43.0854 41.0914 43.0854 39.9511C43.0854 38.8108 42.8608 37.8432 42.4116 37.0484C41.9624 36.2537 41.3749 35.6662 40.6493 35.2861C39.9236 34.8887 39.1375 34.69 38.2908 34.69C37.427 34.69 36.6322 34.8887 35.9065 35.2861C35.1981 35.6662 34.628 36.2537 34.196 37.0484C33.7641 37.8432 33.5481 38.8108 33.5481 39.9511C33.5481 41.1087 33.7555 42.0849 34.1701 42.8797C34.6021 43.6744 35.1722 44.2705 35.8806 44.6679C36.589 45.048 37.3665 45.2381 38.2131 45.2381ZM47.7153 39.9252C47.7153 38.4738 48.0091 37.2039 48.5965 36.1154C49.1839 35.0097 49.9874 34.1544 51.0067 33.5497C52.0434 32.945 53.201 32.6426 54.4795 32.6426C55.5853 32.6426 56.6133 32.9018 57.5636 33.4201C58.5139 33.9212 59.2395 34.5864 59.7406 35.4157V27.8999H62.1249V47.0781H59.7406V44.4087C59.2741 45.2553 58.583 45.9551 57.6673 46.508C56.7516 47.0436 55.6803 47.3114 54.4536 47.3114C53.1924 47.3114 52.0434 47.0004 51.0067 46.3784C49.9874 45.7564 49.1839 44.8839 48.5965 43.7608C48.0091 42.6378 47.7153 41.3592 47.7153 39.9252ZM59.7406 39.9511C59.7406 38.8799 59.5246 37.9469 59.0927 37.1521C58.6607 36.3573 58.0733 35.7526 57.3304 35.338C56.6047 34.906 55.8013 34.69 54.9201 34.69C54.039 34.69 53.2356 34.8974 52.5099 35.312C51.7842 35.7267 51.2054 36.3314 50.7735 37.1262C50.3415 37.921 50.1256 38.854 50.1256 39.9252C50.1256 41.0137 50.3415 41.9639 50.7735 42.776C51.2054 43.5708 51.7842 44.1841 52.5099 44.6161C53.2356 45.0307 54.039 45.2381 54.9201 45.2381C55.8013 45.2381 56.6047 45.0307 57.3304 44.6161C58.0733 44.1841 58.6607 43.5708 59.0927 42.776C59.5246 41.9639 59.7406 41.0223 59.7406 39.9511ZM78.7058 32.8759V47.0781H76.3474V44.9789C75.8982 45.7046 75.2675 46.2747 74.4555 46.6894C73.6607 47.0868 72.7796 47.2855 71.812 47.2855C70.7062 47.2855 69.7128 47.0608 68.8316 46.6116C67.9505 46.1451 67.2507 45.454 66.7324 44.5383C66.2313 43.6226 65.9808 42.5082 65.9808 41.1951V32.8759H68.3133V40.8841C68.3133 42.2836 68.6675 43.3634 69.3759 44.1236C70.0842 44.8666 71.0518 45.2381 72.2785 45.2381C73.5398 45.2381 74.5332 44.8493 75.2589 44.0718C75.9846 43.2943 76.3474 42.1626 76.3474 40.6768V32.8759H78.7058ZM81.8067 39.9511C81.8067 38.4825 82.1004 37.2039 82.6878 36.1154C83.2753 35.0097 84.0873 34.1544 85.124 33.5497C86.1779 32.945 87.3787 32.6426 88.7264 32.6426C90.4714 32.6426 91.9055 33.0659 93.0285 33.9125C94.1688 34.7592 94.9204 35.934 95.2832 37.4372H92.7434C92.5015 36.5733 92.0264 35.8908 91.318 35.3898C90.6269 34.8887 89.763 34.6382 88.7264 34.6382C87.3787 34.6382 86.2902 35.1047 85.4609 36.0377C84.6316 36.9534 84.2169 38.2579 84.2169 39.9511C84.2169 41.6616 84.6316 42.9833 85.4609 43.9163C86.2902 44.8493 87.3787 45.3158 88.7264 45.3158C89.763 45.3158 90.6269 45.0739 91.318 44.5901C92.0091 44.1064 92.4843 43.4153 92.7434 42.5168H95.2832C94.9031 43.9681 94.1429 45.1344 93.0026 46.0155C91.8623 46.8794 90.4369 47.3114 88.7264 47.3114C87.3787 47.3114 86.1779 47.009 85.124 46.4043C84.0873 45.7996 83.2753 44.9443 82.6878 43.8386C82.1004 42.7328 81.8067 41.437 81.8067 39.9511ZM101.307 34.8196V43.1907C101.307 43.8818 101.454 44.3742 101.747 44.6679C102.041 44.9443 102.551 45.0826 103.276 45.0826H105.013V47.0781H102.888C101.575 47.0781 100.59 46.7758 99.9332 46.171C99.2767 45.5663 98.9484 44.5729 98.9484 43.1907V34.8196H97.1083V32.8759H98.9484V29.2994H101.307V32.8759H105.013V34.8196H101.307ZM109.088 30.5693C108.639 30.5693 108.259 30.4138 107.948 30.1028C107.637 29.7918 107.482 29.4117 107.482 28.9625C107.482 28.5133 107.637 28.1332 107.948 27.8222C108.259 27.5112 108.639 27.3557 109.088 27.3557C109.52 27.3557 109.883 27.5112 110.177 27.8222C110.488 28.1332 110.643 28.5133 110.643 28.9625C110.643 29.4117 110.488 29.7918 110.177 30.1028C109.883 30.4138 109.52 30.5693 109.088 30.5693ZM110.229 32.8759V47.0781H107.87V32.8759H110.229ZM119.535 44.9011L123.941 32.8759H126.455L120.883 47.0781H118.136L112.564 32.8759H115.103L119.535 44.9011ZM129.994 30.5693C129.545 30.5693 129.164 30.4138 128.853 30.1028C128.542 29.7918 128.387 29.4117 128.387 28.9625C128.387 28.5133 128.542 28.1332 128.853 27.8222C129.164 27.5112 129.545 27.3557 129.994 27.3557C130.426 27.3557 130.789 27.5112 131.082 27.8222C131.393 28.1332 131.549 28.5133 131.549 28.9625C131.549 29.4117 131.393 29.7918 131.082 30.1028C130.789 30.4138 130.426 30.5693 129.994 30.5693ZM131.134 32.8759V47.0781H128.776V32.8759H131.134ZM138.03 34.8196V43.1907C138.03 43.8818 138.177 44.3742 138.471 44.6679C138.765 44.9443 139.274 45.0826 140 45.0826H141.736V47.0781H139.611C138.298 47.0781 137.313 46.7758 136.657 46.171C136 45.5663 135.672 44.5729 135.672 43.1907V34.8196H133.832V32.8759H135.672V29.2994H138.03V32.8759H141.736V34.8196H138.03ZM156.826 32.8759L148.274 53.7646H145.838L148.637 46.9226L142.909 32.8759H145.527L149.984 44.3828L154.39 32.8759H156.826ZM167.325 30.5693C166.875 30.5693 166.495 30.4138 166.184 30.1028C165.873 29.7918 165.718 29.4117 165.718 28.9625C165.718 28.5133 165.873 28.1332 166.184 27.8222C166.495 27.5112 166.875 27.3557 167.325 27.3557C167.757 27.3557 168.119 27.5112 168.413 27.8222C168.724 28.1332 168.88 28.5133 168.88 28.9625C168.88 29.4117 168.724 29.7918 168.413 30.1028C168.119 30.4138 167.757 30.5693 167.325 30.5693ZM168.465 32.8759V47.0781H166.107V32.8759H168.465ZM177.512 47.3114C176.424 47.3114 175.448 47.13 174.584 46.7671C173.72 46.387 173.037 45.8687 172.536 45.2121C172.035 44.5383 171.759 43.7695 171.707 42.9056H174.143C174.212 43.614 174.54 44.1928 175.128 44.642C175.733 45.0912 176.519 45.3158 177.486 45.3158C178.385 45.3158 179.093 45.1171 179.611 44.7197C180.13 44.3223 180.389 43.8213 180.389 43.2166C180.389 42.5946 180.113 42.1367 179.56 41.843C179.007 41.532 178.152 41.2296 176.994 40.9359C175.94 40.6595 175.076 40.383 174.402 40.1066C173.746 39.8129 173.176 39.3896 172.692 38.8367C172.225 38.2665 171.992 37.5236 171.992 36.6079C171.992 35.8822 172.208 35.217 172.64 34.6123C173.072 34.0076 173.685 33.5324 174.48 33.1869C175.275 32.8241 176.182 32.6426 177.201 32.6426C178.774 32.6426 180.043 33.04 181.011 33.8348C181.979 34.6296 182.497 35.7181 182.566 37.1003H180.208C180.156 36.3573 179.853 35.7613 179.3 35.312C178.765 34.8628 178.039 34.6382 177.123 34.6382C176.277 34.6382 175.603 34.8196 175.102 35.1825C174.601 35.5453 174.35 36.0204 174.35 36.6079C174.35 37.0744 174.497 37.4631 174.791 37.7741C175.102 38.0678 175.482 38.3097 175.931 38.4998C176.398 38.6725 177.037 38.8712 177.849 39.0958C178.869 39.3723 179.698 39.6487 180.337 39.9252C180.976 40.1843 181.521 40.5817 181.97 41.1173C182.436 41.6529 182.678 42.3527 182.696 43.2166C182.696 43.9941 182.48 44.6938 182.048 45.3158C181.616 45.9378 181.002 46.4302 180.208 46.793C179.43 47.1386 178.532 47.3114 177.512 47.3114ZM192.053 39.9252C192.053 38.4738 192.347 37.2039 192.934 36.1154C193.522 35.0097 194.325 34.1544 195.344 33.5497C196.381 32.945 197.53 32.6426 198.791 32.6426C200.035 32.6426 201.115 32.9104 202.031 33.446C202.947 33.9817 203.629 34.6555 204.078 35.4675V32.8759H206.463V47.0781H204.078V44.4346C203.612 45.264 202.912 45.9551 201.979 46.508C201.063 47.0436 199.992 47.3114 198.765 47.3114C197.504 47.3114 196.364 47.0004 195.344 46.3784C194.325 45.7564 193.522 44.8839 192.934 43.7608C192.347 42.6378 192.053 41.3592 192.053 39.9252ZM204.078 39.9511C204.078 38.8799 203.862 37.9469 203.43 37.1521C202.998 36.3573 202.411 35.7526 201.668 35.338C200.942 34.906 200.139 34.69 199.258 34.69C198.377 34.69 197.573 34.8974 196.848 35.312C196.122 35.7267 195.543 36.3314 195.111 37.1262C194.679 37.921 194.463 38.854 194.463 39.9252C194.463 41.0137 194.679 41.9639 195.111 42.776C195.543 43.5708 196.122 44.1841 196.848 44.6161C197.573 45.0307 198.377 45.2381 199.258 45.2381C200.139 45.2381 200.942 45.0307 201.668 44.6161C202.411 44.1841 202.998 43.5708 203.43 42.776C203.862 41.9639 204.078 41.0223 204.078 39.9511ZM212.806 35.5194C213.29 34.6728 213.999 33.9817 214.932 33.446C215.865 32.9104 216.927 32.6426 218.119 32.6426C219.398 32.6426 220.547 32.945 221.566 33.5497C222.586 34.1544 223.389 35.0097 223.976 36.1154C224.564 37.2039 224.858 38.4738 224.858 39.9252C224.858 41.3592 224.564 42.6378 223.976 43.7608C223.389 44.8839 222.577 45.7564 221.54 46.3784C220.521 47.0004 219.381 47.3114 218.119 47.3114C216.893 47.3114 215.813 47.0436 214.88 46.508C213.964 45.9724 213.273 45.2899 212.806 44.4606V47.0781H210.448V27.8999H212.806V35.5194ZM222.447 39.9252C222.447 38.854 222.231 37.921 221.799 37.1262C221.368 36.3314 220.78 35.7267 220.037 35.312C219.311 34.8974 218.508 34.69 217.627 34.69C216.763 34.69 215.96 34.906 215.217 35.338C214.491 35.7526 213.904 36.366 213.454 37.178C213.022 37.9728 212.806 38.8972 212.806 39.9511C212.806 41.0223 213.022 41.9639 213.454 42.776C213.904 43.5708 214.491 44.1841 215.217 44.6161C215.96 45.0307 216.763 45.2381 217.627 45.2381C218.508 45.2381 219.311 45.0307 220.037 44.6161C220.78 44.1841 221.368 43.5708 221.799 42.776C222.231 41.9639 222.447 41.0137 222.447 39.9252ZM234.156 47.3114C232.826 47.3114 231.616 47.009 230.528 46.4043C229.456 45.7996 228.61 44.9443 227.988 43.8386C227.383 42.7155 227.081 41.4197 227.081 39.9511C227.081 38.4998 227.392 37.2212 228.014 36.1154C228.653 34.9924 229.517 34.1372 230.605 33.5497C231.694 32.945 232.912 32.6426 234.26 32.6426C235.607 32.6426 236.825 32.945 237.914 33.5497C239.002 34.1372 239.858 34.9838 240.48 36.0895C241.119 37.1953 241.439 38.4825 241.439 39.9511C241.439 41.4197 241.11 42.7155 240.454 43.8386C239.814 44.9443 238.942 45.7996 237.836 46.4043C236.73 47.009 235.504 47.3114 234.156 47.3114ZM234.156 45.2381C235.003 45.2381 235.797 45.0394 236.54 44.642C237.283 44.2446 237.879 43.6485 238.329 42.8537C238.795 42.059 239.028 41.0914 239.028 39.9511C239.028 38.8108 238.804 37.8432 238.354 37.0484C237.905 36.2537 237.318 35.6662 236.592 35.2861C235.866 34.8887 235.08 34.69 234.234 34.69C233.37 34.69 232.575 34.8887 231.849 35.2861C231.141 35.6662 230.571 36.2537 230.139 37.0484C229.707 37.8432 229.491 38.8108 229.491 39.9511C229.491 41.1087 229.698 42.0849 230.113 42.8797C230.545 43.6744 231.115 44.2705 231.823 44.6679C232.532 45.048 233.309 45.2381 234.156 45.2381ZM257.135 32.8759V47.0781H254.776V44.9789C254.327 45.7046 253.697 46.2747 252.884 46.6894C252.09 47.0868 251.209 47.2855 250.241 47.2855C249.135 47.2855 248.142 47.0608 247.261 46.6116C246.379 46.1451 245.68 45.454 245.161 44.5383C244.66 43.6226 244.41 42.5082 244.41 41.1951V32.8759H246.742V40.8841C246.742 42.2836 247.096 43.3634 247.805 44.1236C248.513 44.8666 249.481 45.2381 250.708 45.2381C251.969 45.2381 252.962 44.8493 253.688 44.0718C254.414 43.2943 254.776 42.1626 254.776 40.6768V32.8759H257.135ZM263.994 34.8196V43.1907C263.994 43.8818 264.14 44.3742 264.434 44.6679C264.728 44.9443 265.238 45.0826 265.963 45.0826H267.7V47.0781H265.574C264.261 47.0781 263.277 46.7758 262.62 46.171C261.963 45.5663 261.635 44.5729 261.635 43.1907V34.8196H259.795V32.8759H261.635V29.2994H263.994V32.8759H267.7V34.8196H263.994ZM294.545 32.6167C295.651 32.6167 296.636 32.85 297.5 33.3165C298.364 33.7657 299.046 34.4482 299.547 35.3639C300.048 36.2796 300.299 37.394 300.299 38.7071V47.0781H297.966V39.044C297.966 37.6272 297.612 36.5474 296.904 35.8044C296.213 35.0442 295.271 34.6641 294.079 34.6641C292.852 34.6641 291.876 35.0615 291.15 35.8563C290.425 36.6338 290.062 37.7655 290.062 39.2513V47.0781H287.729V39.044C287.729 37.6272 287.375 36.5474 286.667 35.8044C285.976 35.0442 285.034 34.6641 283.842 34.6641C282.615 34.6641 281.639 35.0615 280.913 35.8563C280.188 36.6338 279.825 37.7655 279.825 39.2513V47.0781H277.466V32.8759H279.825V34.9233C280.291 34.1803 280.913 33.6102 281.691 33.2128C282.486 32.8154 283.358 32.6167 284.308 32.6167C285.501 32.6167 286.555 32.8845 287.47 33.4201C288.386 33.9557 289.068 34.7419 289.518 35.7785C289.915 34.7764 290.572 33.9989 291.487 33.446C292.403 32.8932 293.422 32.6167 294.545 32.6167ZM317.126 39.4328C317.126 39.882 317.1 40.3571 317.048 40.8582H305.697C305.783 42.2577 306.258 43.3548 307.122 44.1496C308.003 44.9271 309.066 45.3158 310.31 45.3158C311.329 45.3158 312.176 45.0826 312.85 44.6161C313.541 44.1323 314.024 43.493 314.301 42.6982H316.841C316.461 44.0632 315.7 45.1776 314.56 46.0415C313.42 46.8881 312.003 47.3114 310.31 47.3114C308.962 47.3114 307.753 47.009 306.681 46.4043C305.628 45.7996 304.798 44.9443 304.193 43.8386C303.589 42.7155 303.286 41.4197 303.286 39.9511C303.286 38.4825 303.58 37.1953 304.168 36.0895C304.755 34.9838 305.576 34.1372 306.63 33.5497C307.701 32.945 308.928 32.6426 310.31 32.6426C311.657 32.6426 312.85 32.9364 313.886 33.5238C314.923 34.1112 315.718 34.9233 316.271 35.9599C316.841 36.9793 317.126 38.1369 317.126 39.4328ZM314.69 38.9403C314.69 38.0419 314.491 37.2731 314.094 36.6338C313.696 35.9772 313.152 35.4848 312.461 35.1565C311.787 34.811 311.035 34.6382 310.206 34.6382C309.014 34.6382 307.995 35.0183 307.148 35.7785C306.319 36.5388 305.844 37.5927 305.723 38.9403H314.69ZM327.159 32.6167C328.886 32.6167 330.286 33.1437 331.357 34.1976C332.428 35.2343 332.964 36.7374 332.964 38.7071V47.0781H330.631V39.044C330.631 37.6272 330.277 36.5474 329.569 35.8044C328.86 35.0442 327.893 34.6641 326.666 34.6641C325.422 34.6641 324.429 35.0529 323.686 35.8304C322.96 36.6079 322.597 37.7395 322.597 39.2254V47.0781H320.239V32.8759H322.597V34.8974C323.064 34.1717 323.694 33.6102 324.489 33.2128C325.301 32.8154 326.191 32.6167 327.159 32.6167ZM339.693 34.8196V43.1907C339.693 43.8818 339.84 44.3742 340.134 44.6679C340.427 44.9443 340.937 45.0826 341.663 45.0826H343.399V47.0781H341.274C339.961 47.0781 338.976 46.7758 338.319 46.171C337.663 45.5663 337.335 44.5729 337.335 43.1907V34.8196H335.495V32.8759H337.335V29.2994H339.693V32.8759H343.399V34.8196H339.693ZM345.375 39.9252C345.375 38.4738 345.669 37.2039 346.257 36.1154C346.844 35.0097 347.647 34.1544 348.667 33.5497C349.703 32.945 350.852 32.6426 352.114 32.6426C353.358 32.6426 354.438 32.9104 355.353 33.446C356.269 33.9817 356.951 34.6555 357.401 35.4675V32.8759H359.785V47.0781H357.401V44.4346C356.934 45.264 356.234 45.9551 355.301 46.508C354.386 47.0436 353.314 47.3114 352.088 47.3114C350.826 47.3114 349.686 47.0004 348.667 46.3784C347.647 45.7564 346.844 44.8839 346.257 43.7608C345.669 42.6378 345.375 41.3592 345.375 39.9252ZM357.401 39.9511C357.401 38.8799 357.185 37.9469 356.753 37.1521C356.321 36.3573 355.733 35.7526 354.99 35.338C354.265 34.906 353.461 34.69 352.58 34.69C351.699 34.69 350.896 34.8974 350.17 35.312C349.444 35.7267 348.865 36.3314 348.434 37.1262C348.002 37.921 347.786 38.854 347.786 39.9252C347.786 41.0137 348.002 41.9639 348.434 42.776C348.865 43.5708 349.444 44.1841 350.17 44.6161C350.896 45.0307 351.699 45.2381 352.58 45.2381C353.461 45.2381 354.265 45.0307 354.99 44.6161C355.733 44.1841 356.321 43.5708 356.753 42.776C357.185 41.9639 357.401 41.0223 357.401 39.9511ZM366.129 27.8999V47.0781H363.77V27.8999H366.129ZM371.366 30.5693C370.917 30.5693 370.537 30.4138 370.226 30.1028C369.915 29.7918 369.76 29.4117 369.76 28.9625C369.76 28.5133 369.915 28.1332 370.226 27.8222C370.537 27.5112 370.917 27.3557 371.366 27.3557C371.798 27.3557 372.161 27.5112 372.455 27.8222C372.766 28.1332 372.921 28.5133 372.921 28.9625C372.921 29.4117 372.766 29.7918 372.455 30.1028C372.161 30.4138 371.798 30.5693 371.366 30.5693ZM372.507 32.8759V47.0781H370.148V32.8759H372.507ZM379.403 34.8196V43.1907C379.403 43.8818 379.55 44.3742 379.844 44.6679C380.137 44.9443 380.647 45.0826 381.373 45.0826H383.109V47.0781H380.984C379.671 47.0781 378.686 46.7758 378.029 46.171C377.373 45.5663 377.045 44.5729 377.045 43.1907V34.8196H375.204V32.8759H377.045V29.2994H379.403V32.8759H383.109V34.8196H379.403ZM398.199 32.8759L389.647 53.7646H387.21L390.009 46.9226L384.282 32.8759H386.899L391.357 44.3828L395.763 32.8759H398.199ZM413.259 34.8196H410.278V47.0781H407.92V34.8196H406.08V32.8759H407.92V31.8651C407.92 30.2756 408.326 29.118 409.138 28.3923C409.967 27.6494 411.289 27.2779 413.103 27.2779V29.2476C412.066 29.2476 411.332 29.4549 410.9 29.8696C410.486 30.267 410.278 30.9321 410.278 31.8651V32.8759H413.259V34.8196ZM422.202 47.3114C420.872 47.3114 419.663 47.009 418.574 46.4043C417.503 45.7996 416.656 44.9443 416.034 43.8386C415.43 42.7155 415.127 41.4197 415.127 39.9511C415.127 38.4998 415.438 37.2212 416.06 36.1154C416.699 34.9924 417.563 34.1372 418.652 33.5497C419.74 32.945 420.958 32.6426 422.306 32.6426C423.654 32.6426 424.872 32.945 425.96 33.5497C427.049 34.1372 427.904 34.9838 428.526 36.0895C429.165 37.1953 429.485 38.4825 429.485 39.9511C429.485 41.4197 429.157 42.7155 428.5 43.8386C427.861 44.9443 426.988 45.7996 425.883 46.4043C424.777 47.009 423.55 47.3114 422.202 47.3114ZM422.202 45.2381C423.049 45.2381 423.844 45.0394 424.587 44.642C425.33 44.2446 425.926 43.6485 426.375 42.8537C426.841 42.059 427.075 41.0914 427.075 39.9511C427.075 38.8108 426.85 37.8432 426.401 37.0484C425.952 36.2537 425.364 35.6662 424.639 35.2861C423.913 34.8887 423.127 34.69 422.28 34.69C421.416 34.69 420.622 34.8887 419.896 35.2861C419.187 35.6662 418.617 36.2537 418.185 37.0484C417.753 37.8432 417.537 38.8108 417.537 39.9511C417.537 41.1087 417.745 42.0849 418.159 42.8797C418.591 43.6744 419.162 44.2705 419.87 44.6679C420.578 45.048 421.356 45.2381 422.202 45.2381ZM434.944 35.1825C435.359 34.3704 435.946 33.7398 436.707 33.2905C437.484 32.8413 438.426 32.6167 439.531 32.6167V35.0529H438.909C436.266 35.0529 434.944 36.4869 434.944 39.355V47.0781H432.586V32.8759H434.944V35.1825Z" fill="white"/>
<path d="M461.471 46.4437C462.941 46.4437 464.367 46.1791 465.748 45.65C467.16 45.1502 468.482 44.474 469.717 43.6215C470.952 42.7984 472.084 41.8723 473.113 40.8434C474.171 39.8145 475.082 38.7709 475.847 37.7125C476.758 36.566 477.581 35.3019 478.316 33.9202C479.08 32.5385 479.727 31.1127 480.256 29.6428C480.785 28.1436 481.197 26.6296 481.491 25.1009C481.785 23.5722 481.932 22.0876 481.932 20.6471C481.932 19.4418 481.8 18.2953 481.535 17.2076C481.271 16.1199 480.888 15.1644 480.389 14.3413C479.918 13.5181 479.316 12.8714 478.581 12.401C477.875 11.9013 477.052 11.6514 476.111 11.6514C474.759 11.6514 473.495 12.0777 472.319 12.9302C471.143 13.7533 470.07 14.7676 469.1 15.9729C468.13 17.1782 467.277 18.4717 466.542 19.8534C465.807 21.2351 465.234 22.4551 464.822 23.5134L463.103 28.0995C462.574 29.6869 462.059 31.3479 461.559 33.0824C461.06 34.7875 460.648 36.4337 460.325 38.0212C460.266 38.4034 460.163 38.9767 460.016 39.741C459.869 40.5053 459.722 41.2991 459.575 42.1222C459.428 42.9454 459.296 43.7097 459.178 44.4153C459.06 45.1502 459.002 45.6794 459.002 46.0027C459.237 46.1497 459.604 46.2526 460.104 46.3114C460.604 46.3996 461.06 46.4437 461.471 46.4437ZM459.002 37.2275C459.002 37.1981 459.002 37.1834 459.002 37.1834C459.031 37.1834 459.046 37.1687 459.046 37.1393L459.575 35.0226C459.928 33.4646 460.413 31.7007 461.03 29.731C461.647 27.7614 462.353 25.7917 463.147 23.8221C463.941 21.823 464.822 19.9563 465.793 18.2218C466.792 16.4579 467.85 15.0174 468.968 13.9003C470.026 12.842 471.099 11.9454 472.187 11.2104C473.274 10.4755 474.612 10.108 476.199 10.108C477.405 10.108 478.492 10.4167 479.463 11.034C480.433 11.622 481.256 12.4451 481.932 13.5034C482.726 14.7676 483.24 16.164 483.475 17.6926C483.74 19.2213 483.813 20.7794 483.696 22.3669C483.578 23.9544 483.314 25.5125 482.902 27.0411C482.52 28.5698 482.094 29.9515 481.623 31.1862C480.624 33.8908 479.154 36.4778 477.214 38.9473C475.303 41.3873 473.157 43.4157 470.775 45.0326C470.246 45.356 469.629 45.6941 468.923 46.0468C468.218 46.429 467.454 46.7671 466.63 47.0611C465.837 47.3844 465.014 47.6343 464.161 47.8107C463.308 48.0165 462.456 48.1194 461.603 48.1194C460.898 48.1194 460.325 48.0459 459.884 47.8989C459.472 47.7813 459.06 47.7078 458.649 47.6784L458.032 54.8662C458.002 55.1308 457.958 55.5276 457.899 56.0568C457.87 56.6153 457.84 57.2033 457.811 57.8207C457.811 58.438 457.796 59.026 457.767 59.5845C457.738 60.1431 457.708 60.584 457.679 60.9074C457.62 61.4366 457.576 61.951 457.546 62.4508C457.546 62.98 457.517 63.4356 457.458 63.8178C457.429 64.2294 457.341 64.5528 457.194 64.7879C457.076 65.0231 456.885 65.1407 456.62 65.1407C456.385 65.1407 456.15 65.0819 455.915 64.9643C455.797 64.5234 455.724 63.759 455.694 62.6713C455.694 61.5836 455.709 60.4224 455.739 59.1877C455.768 57.9529 455.797 56.7623 455.827 55.6158C455.886 54.4987 455.915 53.6609 455.915 53.1023C455.915 52.4556 455.93 51.8823 455.959 51.3825C456.018 50.9122 456.047 50.383 456.047 49.7951C456.047 49.1189 456.062 48.5603 456.091 48.1194C456.121 47.6784 456.135 47.1639 456.135 46.576C455.988 46.429 455.812 46.2967 455.606 46.1791C455.43 46.0909 455.253 45.9733 455.077 45.8263C454.548 45.4442 454.298 45.062 454.327 44.6798C454.357 44.2977 454.533 44.1066 454.857 44.1066C455.062 44.1066 455.239 44.1654 455.386 44.283C455.592 44.4006 455.753 44.5034 455.871 44.5916C455.988 44.6798 456.077 44.7239 456.135 44.7239C456.253 44.7239 456.297 44.5622 456.268 44.2389C456.268 43.9449 456.282 43.3716 456.312 42.5191C456.312 42.1369 456.326 41.8723 456.356 41.7254C456.415 41.5784 456.444 41.3285 456.444 40.9757C456.473 40.6817 456.473 40.3878 456.444 40.0938C456.415 39.7704 456.429 39.4617 456.488 39.1677C456.518 38.8444 456.547 38.5945 456.576 38.4181C456.606 38.2123 456.62 37.9036 456.62 37.4921C456.62 36.8159 456.635 36.0369 456.665 35.1549C456.694 34.273 456.738 33.3764 456.797 32.465C456.856 31.5243 456.9 30.613 456.929 29.731C456.988 28.8197 457.017 28.0113 457.017 27.3057C457.017 26.7178 457.032 25.924 457.061 24.9245C457.12 23.925 457.15 22.8961 457.15 21.8377C457.15 20.75 457.12 19.7211 457.061 18.751C457.003 17.7808 456.856 17.0606 456.62 16.5902C456.385 16.7372 456.15 16.9871 455.915 17.3399C455.68 17.6926 455.459 18.0748 455.253 18.4864C455.048 18.8979 454.857 19.3242 454.68 19.7652C454.533 20.1768 454.386 20.5442 454.239 20.8676C453.975 21.6025 453.739 22.4845 453.534 23.5134C453.328 24.5129 453.152 25.3949 453.005 26.1592C452.858 27.1587 452.813 28.1877 452.872 29.246C452.931 30.2749 453.034 31.2303 453.181 32.1123C453.328 32.8472 453.49 33.4205 453.666 33.832C453.842 34.2142 454.004 34.5082 454.151 34.714C454.327 34.9198 454.474 35.0667 454.592 35.1549C454.739 35.2137 454.842 35.3019 454.901 35.4195C455.048 35.6547 455.062 35.8605 454.945 36.0369C454.827 36.1839 454.651 36.2574 454.416 36.2574C454.151 36.2574 453.828 36.1251 453.445 35.8605C453.093 35.5665 452.755 35.0373 452.431 34.273C452.108 33.3911 451.902 32.6267 451.814 31.98C451.726 31.3038 451.623 30.5101 451.505 29.5988C451.446 29.3048 451.446 29.0696 451.505 28.8932C451.564 28.6874 451.593 28.3934 451.593 28.0113C451.593 26.3944 451.755 24.8216 452.078 23.2929C452.431 21.7642 452.887 20.2943 453.445 18.8832C453.563 18.5599 453.725 18.1777 453.931 17.7367C454.166 17.2664 454.416 16.8107 454.68 16.3697C454.974 15.9288 455.283 15.5613 455.606 15.2673C455.93 14.9439 456.268 14.7823 456.62 14.7823C457.238 14.7823 457.723 15.0468 458.076 15.576C458.428 16.1052 458.693 16.7666 458.869 17.5603C459.046 18.3541 459.149 19.2066 459.178 20.118C459.207 21.0293 459.222 21.8524 459.222 22.5874C459.222 25.145 459.178 27.6291 459.09 30.0397C459.031 32.4503 459.002 34.8463 459.002 37.2275ZM484.507 41.9017C484.301 41.9017 484.154 41.7841 484.066 41.549C483.978 41.3138 483.919 41.0639 483.889 40.7993C483.889 40.5053 483.904 40.2261 483.934 39.9615C483.963 39.6969 483.978 39.5205 483.978 39.4323C483.948 38.9032 483.934 38.374 483.934 37.8448C483.963 37.2863 483.963 36.7277 483.934 36.1692C483.934 35.9634 483.934 35.5665 483.934 34.9786C483.963 34.3906 484.007 33.7879 484.066 33.1706C484.154 32.5532 484.272 32.0094 484.419 31.539C484.566 31.0392 484.757 30.7894 484.992 30.7894C485.58 30.7894 485.874 30.9804 485.874 31.3626C485.903 31.7448 485.889 32.2446 485.83 32.8619C485.8 33.0971 485.786 33.3323 485.786 33.5675C485.786 33.8026 485.786 34.0378 485.786 34.273C485.786 34.5964 485.771 34.8022 485.742 34.8904C485.712 34.9492 485.697 35.1255 485.697 35.4195C486.021 35.1843 486.315 34.9198 486.579 34.6258C486.844 34.3024 487.314 34.1407 487.99 34.1407C488.196 34.1407 488.461 34.1407 488.784 34.1407C489.137 34.1113 489.504 34.0966 489.887 34.0966C490.533 34.0966 491.136 34.1407 491.695 34.2289C492.253 34.2877 492.532 34.4641 492.532 34.7581C492.532 35.0814 492.371 35.2872 492.047 35.3754C491.753 35.4342 491.386 35.4636 490.945 35.4636C490.651 35.4636 490.342 35.4636 490.019 35.4636C489.725 35.4342 489.46 35.4195 489.225 35.4195C488.814 35.4195 488.476 35.4342 488.211 35.4636C487.946 35.4636 487.726 35.5077 487.549 35.5959C487.373 35.6547 487.211 35.7576 487.064 35.9046C486.947 36.0516 486.8 36.2721 486.623 36.566C486.388 36.9482 486.182 37.3598 486.006 37.8007C485.83 38.2417 485.697 38.7268 485.609 39.2559C485.55 39.5499 485.521 39.8586 485.521 40.182C485.521 40.4759 485.506 40.7552 485.477 41.0198C485.448 41.2844 485.359 41.5049 485.212 41.6813C485.095 41.8282 484.86 41.9017 484.507 41.9017ZM493.286 41.0639C493.727 40.9463 494.124 40.5494 494.476 39.8733C494.829 39.1971 495.079 38.4475 495.226 37.6244C495.373 36.8012 495.402 36.0222 495.314 35.2872C495.255 34.5523 495.035 34.0525 494.653 33.7879C494.565 34.1113 494.403 34.5817 494.168 35.199C493.933 35.787 493.697 36.4337 493.462 37.1393C493.256 37.8448 493.109 38.5504 493.021 39.2559C492.962 39.9615 493.051 40.5641 493.286 41.0639ZM491.081 39.5646C491.081 39.0648 491.199 38.3005 491.434 37.2716C491.698 36.2427 492.036 35.2137 492.448 34.1848C492.889 33.1559 493.374 32.2593 493.903 31.4949C494.432 30.7012 494.962 30.3043 495.491 30.3043C495.785 30.3043 495.99 30.4366 496.108 30.7012C496.226 30.9658 496.255 31.1862 496.196 31.3626C496.137 31.5096 496.02 31.6566 495.843 31.8036C495.696 31.9506 495.564 32.1123 495.447 32.2887C495.505 32.4944 495.652 32.7149 495.888 32.9501C496.123 33.1853 496.343 33.5234 496.549 33.9643C496.784 34.4053 496.946 34.9786 497.034 35.6841C497.122 36.3602 497.049 37.2716 496.814 38.4181C496.49 39.9468 495.976 41.0933 495.27 41.8576C494.565 42.622 493.874 43.0042 493.198 43.0042C492.61 43.0042 492.11 42.7102 491.698 42.1222C491.287 41.5637 491.081 40.7111 491.081 39.5646ZM498.832 58.3498C499.42 58.3498 500.008 58.0558 500.596 57.4679C501.184 56.8799 501.64 56.3361 501.963 55.8363C502.463 54.9838 502.86 54.0871 503.154 53.1464C503.477 52.2351 503.727 51.2943 503.904 50.3242C504.08 49.3835 504.212 48.4428 504.3 47.502C504.418 46.5613 504.536 45.6353 504.653 44.7239L504.83 42.1663C504.683 42.2251 504.477 42.3721 504.212 42.6073C503.977 42.8719 503.727 43.1511 503.463 43.4451C503.198 43.7685 502.948 44.0772 502.713 44.3712C502.507 44.6945 502.36 44.915 502.272 45.0326C502.037 45.356 501.743 45.7529 501.39 46.2232C501.037 46.6936 500.684 47.1933 500.332 47.7225C499.979 48.2811 499.641 48.8249 499.317 49.3541C498.994 49.8832 498.744 50.3536 498.568 50.7652C498.45 51.0592 498.23 51.6177 497.906 52.4409C497.583 53.264 497.348 54.1165 497.201 54.9985C497.054 55.8804 497.069 56.6594 497.245 57.3356C497.421 58.0117 497.95 58.3498 498.832 58.3498ZM498.347 38.3299C498.347 37.6244 498.568 36.7865 499.009 35.8164C499.45 34.8169 500.008 33.8761 500.684 32.9942C501.361 32.1123 502.11 31.3626 502.933 30.7453C503.757 30.1279 504.565 29.8192 505.359 29.8192C506.182 29.8192 506.755 30.1132 507.078 30.7012C507.431 31.2891 507.417 31.8771 507.034 32.465C506.77 32.4356 506.579 32.3474 506.461 32.2005C506.344 32.0535 506.241 31.8918 506.152 31.7154C506.064 31.539 505.961 31.3773 505.844 31.2303C505.726 31.0833 505.55 31.0098 505.315 31.0098C504.697 31.0098 504.05 31.3185 503.374 31.9359C502.698 32.5238 502.066 33.2441 501.478 34.0966C500.92 34.9492 500.449 35.8311 500.067 36.7424C499.714 37.6538 499.538 38.4181 499.538 39.0355C500.067 38.8885 500.537 38.5945 500.949 38.1535C501.361 37.6832 501.713 37.301 502.007 37.007C502.301 36.6836 502.625 36.2721 502.977 35.7723C503.36 35.2725 503.683 34.8316 503.948 34.4494C504.095 34.2142 504.286 33.9202 504.521 33.5675C504.756 33.2147 505.05 33.0383 505.403 33.0383C505.726 33.0383 505.976 33.2441 506.152 33.6557C506.329 34.0378 506.446 34.5082 506.505 35.0667C506.564 35.5959 506.593 36.1545 506.593 36.7424C506.593 37.3304 506.593 37.8154 506.593 38.1976C506.829 38.1388 507.196 37.9183 507.696 37.5362C508.196 37.1246 508.725 36.6836 509.283 36.2133C509.871 35.7429 510.445 35.3313 511.003 34.9786C511.591 34.5964 512.076 34.4053 512.458 34.4053C512.635 34.4053 512.752 34.5082 512.811 34.714C512.87 34.8904 512.855 35.0667 512.767 35.2431C512.738 35.2725 512.517 35.4489 512.105 35.7723C511.723 36.0663 511.268 36.419 510.738 36.8306C510.209 37.2128 509.68 37.6097 509.151 38.0212C508.622 38.4328 508.225 38.7709 507.96 39.0355C507.725 39.2412 507.475 39.4176 507.211 39.5646C506.946 39.7116 506.784 39.9762 506.726 40.3584C506.638 41.1815 506.593 41.9605 506.593 42.6955C506.593 43.5774 506.52 44.5769 506.373 45.6941C506.255 46.8406 506.079 47.9871 505.844 49.1336C505.609 50.2801 505.329 51.3678 505.006 52.3968C504.712 53.4257 504.389 54.2929 504.036 54.9985C503.183 56.6741 502.287 57.8501 501.346 58.5262C500.435 59.2318 499.597 59.5845 498.832 59.5845C498.009 59.5845 497.333 59.2758 496.804 58.6585C496.275 58.0705 496.01 57.3356 496.01 56.4537C496.01 55.7481 496.04 55.1161 496.098 54.5575C496.157 54.0283 496.26 53.5139 496.407 53.0141C496.554 52.5437 496.73 52.0587 496.936 51.5589C497.142 51.0592 497.407 50.5006 497.73 49.8832C498.612 48.09 499.597 46.4584 500.684 44.9885C501.802 43.5186 503.036 42.0634 504.389 40.6229C504.771 40.2114 504.932 39.5352 504.874 38.5945C504.844 37.6244 504.83 36.6836 504.83 35.7723C504.594 35.8605 504.256 36.228 503.815 36.8747C503.404 37.4921 502.948 38.0212 502.448 38.4622C502.125 38.7856 501.699 39.1824 501.17 39.6528C500.64 40.1232 500.096 40.3584 499.538 40.3584C499.215 40.3584 498.965 40.2849 498.788 40.1379C498.612 39.9909 498.494 39.8145 498.436 39.6087C498.377 39.4029 498.347 39.1824 498.347 38.9473C498.347 38.7121 498.347 38.5063 498.347 38.3299ZM511.766 41.9017C511.56 41.9017 511.413 41.7841 511.325 41.549C511.237 41.3138 511.178 41.0639 511.148 40.7993C511.148 40.5053 511.163 40.2261 511.193 39.9615C511.222 39.6969 511.237 39.5205 511.237 39.4323C511.207 38.9032 511.193 38.374 511.193 37.8448C511.222 37.2863 511.222 36.7277 511.193 36.1692C511.193 35.9634 511.193 35.5665 511.193 34.9786C511.222 34.3906 511.266 33.7879 511.325 33.1706C511.413 32.5532 511.531 32.0094 511.678 31.539C511.825 31.0392 512.016 30.7894 512.251 30.7894C512.839 30.7894 513.133 30.9804 513.133 31.3626C513.162 31.7448 513.148 32.2446 513.089 32.8619C513.059 33.0971 513.045 33.3323 513.045 33.5675C513.045 33.8026 513.045 34.0378 513.045 34.273C513.045 34.5964 513.03 34.8022 513.001 34.8904C512.971 34.9492 512.956 35.1255 512.956 35.4195C513.28 35.1843 513.574 34.9198 513.838 34.6258C514.103 34.3024 514.573 34.1407 515.249 34.1407C515.455 34.1407 515.72 34.1407 516.043 34.1407C516.396 34.1113 516.763 34.0966 517.146 34.0966C517.792 34.0966 518.395 34.1407 518.954 34.2289C519.512 34.2877 519.791 34.4641 519.791 34.7581C519.791 35.0814 519.63 35.2872 519.306 35.3754C519.012 35.4342 518.645 35.4636 518.204 35.4636C517.91 35.4636 517.601 35.4636 517.278 35.4636C516.984 35.4342 516.719 35.4195 516.484 35.4195C516.073 35.4195 515.735 35.4342 515.47 35.4636C515.205 35.4636 514.985 35.5077 514.808 35.5959C514.632 35.6547 514.47 35.7576 514.323 35.9046C514.206 36.0516 514.059 36.2721 513.882 36.566C513.647 36.9482 513.441 37.3598 513.265 37.8007C513.089 38.2417 512.956 38.7268 512.868 39.2559C512.809 39.5499 512.78 39.8586 512.78 40.182C512.78 40.4759 512.765 40.7552 512.736 41.0198C512.707 41.2844 512.618 41.5049 512.471 41.6813C512.354 41.8282 512.119 41.9017 511.766 41.9017ZM520.368 34.0966C520.633 33.9496 520.927 33.7732 521.25 33.5675C521.603 33.3617 521.927 33.1412 522.221 32.906C522.515 32.6414 522.764 32.3621 522.97 32.0682C523.176 31.7448 523.294 31.4067 523.323 31.0539C523.029 31.1127 522.72 31.2597 522.397 31.4949C522.074 31.7007 521.78 31.9506 521.515 32.2446C521.25 32.5385 521.015 32.8619 520.809 33.2147C520.604 33.5381 520.457 33.832 520.368 34.0966ZM518.384 35.1549C518.384 34.5964 518.531 34.0084 518.825 33.3911C519.119 32.7443 519.487 32.1564 519.927 31.6272C520.368 31.0686 520.868 30.613 521.427 30.2602C521.985 29.878 522.529 29.6869 523.058 29.6869C524.028 29.6869 524.528 30.0544 524.558 30.7894C524.616 31.5243 524.308 32.3181 523.632 33.1706C523.279 33.5822 522.75 34.0378 522.044 34.5376C521.339 35.008 520.648 35.2725 519.972 35.3313C519.972 35.8017 519.986 36.228 520.016 36.6101C520.045 36.9629 520.251 37.3304 520.633 37.7125C521.015 38.0947 521.5 38.2858 522.088 38.2858C522.47 38.2858 522.867 38.2123 523.279 38.0653C523.69 37.9183 524.087 37.7566 524.469 37.5803C524.852 37.3745 525.204 37.1687 525.528 36.9629C525.881 36.7277 526.16 36.5219 526.366 36.3456C526.542 36.1986 526.674 36.081 526.762 35.9928C526.88 35.9046 527.012 35.8017 527.159 35.6841C527.6 35.3313 527.909 35.052 528.085 34.8463C528.291 34.6405 528.438 34.4788 528.526 34.3612C528.644 34.2436 528.762 34.1701 528.879 34.1407C529.026 34.1113 529.261 34.0966 529.585 34.0966C529.643 34.42 529.658 34.6405 529.629 34.7581C529.629 34.8757 529.526 35.052 529.32 35.2872C528.909 35.6988 528.423 36.1545 527.865 36.6542C527.306 37.154 526.689 37.6244 526.013 38.0653C525.366 38.5063 524.69 38.8738 523.984 39.1677C523.308 39.4617 522.632 39.6087 521.956 39.6087C520.956 39.6087 520.104 39.2559 519.398 38.5504C518.869 38.0212 518.56 37.4774 518.472 36.9188C518.414 36.3602 518.384 35.7723 518.384 35.1549ZM528.429 49.3541C528.429 49.9714 528.62 50.2801 529.002 50.2801C529.208 50.2801 529.429 50.2066 529.664 50.0596C529.899 49.942 530.09 49.8098 530.237 49.6628C530.825 49.2218 531.34 48.5456 531.781 47.6343C532.251 46.7524 532.589 45.9439 532.795 45.209C532.942 44.7092 533.015 44.1948 533.015 43.6656C533.045 43.1658 533.059 42.6073 533.059 41.9899C532.707 42.1957 532.295 42.5485 531.825 43.0483C531.384 43.5774 531.031 44.0037 530.766 44.3271C530.237 44.9738 529.708 45.7529 529.179 46.6642C528.679 47.5755 528.429 48.4721 528.429 49.3541ZM528.032 34.9345C528.032 34.3759 528.15 33.8467 528.385 33.347C528.65 32.8472 528.958 32.4209 529.311 32.0682C529.693 31.686 530.09 31.392 530.502 31.1862C530.913 30.9804 531.281 30.8776 531.604 30.8776C531.928 30.8776 532.163 30.9951 532.31 31.2303C532.486 31.4655 532.501 31.8624 532.354 32.4209C532.089 32.4797 531.883 32.5238 531.736 32.5532C531.619 32.5826 531.516 32.612 531.428 32.6414C531.34 32.6708 531.251 32.7296 531.163 32.8178C531.075 32.906 530.943 33.0383 530.766 33.2147C530.178 33.8614 529.914 34.3759 529.973 34.7581C530.031 35.1402 530.267 35.5224 530.678 35.9046C531.09 36.2574 531.604 36.6836 532.222 37.1834C532.868 37.6538 533.471 38.3152 534.029 39.1677C534.676 38.7268 535.338 38.2123 536.014 37.6244L540.115 34.7581C540.791 34.2877 541.364 34.0525 541.835 34.0525C542.187 34.0525 542.334 34.1995 542.276 34.4935C542.217 34.7875 541.938 35.0814 541.438 35.3754L538.439 37.448C538.322 37.5068 538.057 37.6832 537.645 37.9771C537.263 38.2417 536.852 38.5504 536.411 38.9032C535.999 39.2265 535.617 39.5352 535.264 39.8292C534.941 40.1232 534.764 40.3143 534.735 40.4024C534.706 40.5494 534.75 40.8287 534.867 41.2403C535.014 41.6519 535.103 42.181 535.132 42.8278C535.161 43.5039 535.058 44.3124 534.823 45.2531C534.617 46.2232 534.147 47.3403 533.412 48.6044C532.765 49.6922 532.06 50.4859 531.295 50.9857C530.531 51.5148 529.811 51.7794 529.135 51.7794C528.517 51.7794 528.018 51.5736 527.635 51.1621C527.224 50.7505 527.018 50.1478 527.018 49.3541C527.018 48.3546 527.283 47.3844 527.812 46.4437C528.312 45.503 528.87 44.6357 529.488 43.842C530.134 43.0483 530.752 42.3721 531.34 41.8135C531.928 41.2256 532.31 40.7993 532.486 40.5347C532.133 39.9174 531.707 39.3882 531.207 38.9473C530.708 38.4769 530.222 38.0506 529.752 37.6685C529.282 37.2569 528.87 36.8453 528.517 36.4337C528.194 36.0222 528.032 35.5224 528.032 34.9345ZM541.176 49.3541C541.176 49.9714 541.367 50.2801 541.749 50.2801C541.955 50.2801 542.175 50.2066 542.411 50.0596C542.646 49.942 542.837 49.8098 542.984 49.6628C543.572 49.2218 544.086 48.5456 544.527 47.6343C544.998 46.7524 545.336 45.9439 545.541 45.209C545.688 44.7092 545.762 44.1948 545.762 43.6656C545.791 43.1658 545.806 42.6073 545.806 41.9899C545.453 42.1957 545.042 42.5485 544.571 43.0483C544.13 43.5774 543.778 44.0037 543.513 44.3271C542.984 44.9738 542.455 45.7529 541.926 46.6642C541.426 47.5755 541.176 48.4721 541.176 49.3541ZM540.779 34.9345C540.779 34.3759 540.897 33.8467 541.132 33.347C541.396 32.8472 541.705 32.4209 542.058 32.0682C542.44 31.686 542.837 31.392 543.248 31.1862C543.66 30.9804 544.028 30.8776 544.351 30.8776C544.674 30.8776 544.909 30.9951 545.056 31.2303C545.233 31.4655 545.248 31.8624 545.101 32.4209C544.836 32.4797 544.63 32.5238 544.483 32.5532C544.366 32.5826 544.263 32.612 544.174 32.6414C544.086 32.6708 543.998 32.7296 543.91 32.8178C543.822 32.906 543.689 33.0383 543.513 33.2147C542.925 33.8614 542.661 34.3759 542.719 34.7581C542.778 35.1402 543.013 35.5224 543.425 35.9046C543.836 36.2574 544.351 36.6836 544.968 37.1834C545.615 37.6538 546.218 38.3152 546.776 39.1677C547.423 38.7268 548.084 38.2123 548.761 37.6244L552.862 34.7581C553.538 34.2877 554.111 34.0525 554.581 34.0525C554.934 34.0525 555.081 34.1995 555.022 34.4935C554.963 34.7875 554.684 35.0814 554.184 35.3754L551.186 37.448C551.068 37.5068 550.804 37.6832 550.392 37.9771C550.01 38.2417 549.598 38.5504 549.157 38.9032C548.746 39.2265 548.364 39.5352 548.011 39.8292C547.688 40.1232 547.511 40.3143 547.482 40.4024C547.452 40.5494 547.496 40.8287 547.614 41.2403C547.761 41.6519 547.849 42.181 547.879 42.8278C547.908 43.5039 547.805 44.3124 547.57 45.2531C547.364 46.2232 546.894 47.3403 546.159 48.6044C545.512 49.6922 544.807 50.4859 544.042 50.9857C543.278 51.5148 542.558 51.7794 541.881 51.7794C541.264 51.7794 540.764 51.5736 540.382 51.1621C539.971 50.7505 539.765 50.1478 539.765 49.3541C539.765 48.3546 540.029 47.3844 540.559 46.4437C541.058 45.503 541.617 44.6357 542.234 43.842C542.881 43.0483 543.498 42.3721 544.086 41.8135C544.674 41.2256 545.056 40.7993 545.233 40.5347C544.88 39.9174 544.454 39.3882 543.954 38.9473C543.454 38.4769 542.969 38.0506 542.499 37.6685C542.028 37.2569 541.617 36.8453 541.264 36.4337C540.941 36.0222 540.779 35.5224 540.779 34.9345Z" fill="#FFDF2B"/>
</svg>
